<svg width="45" height="45" viewBox="0 0 45 45" fill="none" xmlns="http://www.w3.org/2000/svg">
<circle cx="22.5" cy="22.5" r="22.5" fill="#F99602"/>
<path d="M27.4419 13.0828L28.5669 8.8642L26.0357 8.1611L25.0514 12.2391C24.3483 12.0985 23.6452 11.9578 22.9421 11.8172L23.9264 7.59861L21.2546 7.03613L20.2703 11.2547C19.7078 11.1141 19.1453 10.9735 18.5829 10.8329L15.0673 9.98916L14.3642 12.8016C14.3642 12.8016 16.3329 13.2234 16.1923 13.2234C17.1767 13.5047 17.4579 14.2078 17.4579 14.7703L14.5049 26.3011C14.3642 26.5824 14.083 27.1449 13.2393 26.8636L11.4112 26.4417L10.1456 29.3948L13.5205 30.2385L15.3486 30.6604L14.2236 34.879L16.7548 35.5821L17.8798 31.3635C18.5829 31.5041 19.286 31.7853 19.9891 31.9259L19.0047 36.1446L21.5359 36.8477L22.6608 32.6291C27.0201 33.4728 30.395 33.1915 31.8012 29.1135C32.9261 25.8793 31.8012 24.0512 29.4106 22.9262C31.0981 22.5044 32.3637 21.3794 32.6449 19.1295C33.0668 15.8952 30.8168 14.2078 27.4419 13.0828ZM26.7388 27.2855C25.8951 30.5197 20.5515 28.6917 18.8641 28.2698L20.2703 22.645C21.9577 23.0669 27.5826 23.9106 26.7388 27.2855ZM27.5826 18.9889C26.8795 21.9419 22.3796 20.3951 20.9734 20.1138L22.239 14.9109C23.6452 15.1921 28.2857 15.8952 27.5826 18.9889Z" fill="white"/>
</svg>
