<svg width="45" height="45" viewBox="0 0 45 45" fill="none" xmlns="http://www.w3.org/2000/svg">
<circle cx="22.5" cy="22.5" r="22.5" fill="#F5516C"/>
<path d="M20.2968 34.7448C21.2981 35.0529 22.2995 35.207 23.3779 35.207C29.7713 35.207 35.0092 29.9691 35.0092 23.5757H23.3779L20.2968 34.7448Z" fill="white"/>
<path fill-rule="evenodd" clip-rule="evenodd" d="M9.94159 21.8745C9.94159 15.372 15.1332 10.0175 21.5741 9.75338V9.74316H22.0729H22.0741H22.5729V9.75689C23.3502 9.79891 24.0741 9.93053 24.7654 10.0562L24.7825 10.0593L24.7912 10.0609L24.7911 10.061C25.616 10.226 26.3521 10.5531 27.0321 10.8554L27.0529 10.8647L27.0633 10.8693L27.0735 10.8743L27.0871 10.8812C27.6945 11.1848 28.3431 11.5091 28.9939 11.9965C29.5554 12.398 30.1137 12.8769 30.5927 13.3559L30.9462 13.7094L30.9431 13.7126C33.0507 15.8518 34.3845 18.6718 34.3845 21.8744V22.3744H33.8845H22.4537L19.4738 33.1766L19.342 33.654L18.8634 33.5268C13.7172 32.1599 9.94159 27.419 9.94159 21.8745ZM23.2813 21.3744H33.3726C33.2428 18.672 32.0662 16.2795 30.2359 14.4197L23.2813 21.3744ZM21.5729 10.7544C15.6848 11.0186 10.9416 15.9248 10.9416 21.8745C10.9416 26.7872 14.1754 31.0123 18.6445 32.4222L21.5729 21.8068V10.7544ZM22.5741 12.0153V10.7585C22.9464 10.7809 23.3099 10.826 23.6745 10.8826L22.5741 12.0153ZM22.5741 13.4505V14.8901L25.977 11.4872C25.6048 11.3324 25.2381 11.1972 24.8566 11.1008L22.5741 13.4505ZM22.5741 16.3043L26.9479 11.9305C27.2651 12.0915 27.5726 12.2549 27.8762 12.4437L22.5741 17.8074V16.3043ZM22.5741 19.2298V20.6674L29.5245 13.717C29.2634 13.4771 28.9861 13.243 28.7053 13.0273L22.5741 19.2298Z" fill="white"/>
<path fill-rule="evenodd" clip-rule="evenodd" d="M19.3934 15.3823H17.9369V23.2251H19.3934V15.3823ZM15.5849 17.6222H17.0415V23.2242H15.5849V17.6222ZM13.226 19.8632H14.6825V23.2244H13.226V19.8632Z" fill="white"/>
</svg>
