<svg width="45" height="45" viewBox="0 0 45 45" fill="none" xmlns="http://www.w3.org/2000/svg">
<circle cx="22.5" cy="22.5" r="22.5" fill="#F5516C"/>
<path fill-rule="evenodd" clip-rule="evenodd" d="M25.2861 22.2368C28.0725 22.2368 30.3312 20 30.3312 17.2407C30.3312 14.4815 28.0725 12.2446 25.2861 12.2446C22.4998 12.2446 20.2411 14.4815 20.2411 17.2407C20.2411 20 22.4998 22.2368 25.2861 22.2368ZM29.6763 12.4584C29.2966 12.4584 28.9168 12.5122 28.5371 12.6196C28.9168 12.8882 29.2966 13.1568 29.622 13.5329H29.7305C31.8462 13.5329 33.5279 15.1982 33.5279 17.2934C33.5279 19.3885 31.8462 21.0538 29.7305 21.0538H29.622L29.622 21.0539C29.2966 21.3762 28.9711 21.6985 28.5371 21.9671C28.9168 22.0745 29.2966 22.1283 29.6763 22.1283C32.3344 22.1283 34.5044 19.9794 34.5044 17.3471C34.5044 14.6073 32.3344 12.4584 29.6763 12.4584Z" fill="white"/>
<path d="M36.9251 27.525C36.7379 26.9226 36.1764 26.5519 35.2406 26.4592C35.1002 26.4592 34.9131 26.4129 34.7727 26.4129C33.5093 26.4129 32.6203 26.9226 32.5267 27.0153C31.5909 27.6177 30.6083 28.081 29.5789 28.4517C29.7192 28.2664 29.8596 28.081 30 27.8494C30 27.803 30.0468 27.7567 30.0468 27.7567C30.2807 27.108 30.1403 26.6446 29.9532 26.3666C29.6724 25.9495 29.1577 25.7179 28.5026 25.6715H28.3623H23.6831C22.2794 24.0034 19.7059 23.1693 15.869 23.123H15.4946C15.4479 23.123 15.4011 23.123 15.3075 23.123V22.6133C15.3075 22.1036 14.8864 21.6865 14.3717 21.6865H10.0201C9.50535 21.6865 9.08423 22.1036 9.08423 22.6133V32.8074C9.08423 33.3171 9.50535 33.7342 10.0201 33.7342H14.3249C14.8396 33.7342 15.2607 33.3171 15.2607 32.8074V32.5294C19.9398 33.6878 23.3556 34.2439 25.742 34.2439C29.4385 34.2439 35.4746 30.0272 35.7085 29.8419L35.7553 29.7955C36.1296 29.4248 37.2526 28.5444 36.9251 27.525ZM14.3249 32.8074H10.0201V22.6133H14.3249V32.8074ZM35.147 29.0541C35.147 29.0541 29.1577 33.3171 25.6952 33.3171C23.4024 33.3171 19.9866 32.7611 15.4011 31.6027V23.957H15.7754C19.5655 24.0034 22.0454 24.8838 23.1216 26.5056H28.2687H28.4091C29.1109 26.5519 29.3449 26.8299 29.1109 27.3396C28.4091 28.6371 26.9585 29.2395 24.7125 29.2395C23.9639 29.2395 23.1216 29.1468 22.2326 29.0078V29.8419L22.6537 29.8882C23.4024 29.9809 24.1511 30.0272 24.8529 30.0272C27.8008 30.0272 30.5147 29.2395 32.9478 27.7103C32.9478 27.7103 33.6497 27.247 34.7259 27.247C34.8663 27.247 34.9599 27.247 35.1002 27.247C36.27 27.4787 36.4104 28.0347 35.147 29.0541Z" fill="white"/>
</svg>
