<svg width="45" height="45" viewBox="0 0 45 45" fill="none" xmlns="http://www.w3.org/2000/svg">
<circle cx="22.5" cy="22.5" r="22.5" fill="#F5516C"/>
<path fill-rule="evenodd" clip-rule="evenodd" d="M24.1383 11.25H15.9141V15.8276H22.8193C26.4659 15.8276 29.4917 18.8534 29.4917 22.5C29.4917 26.1466 26.4659 29.1724 22.8193 29.1724H15.9141V33.75H23.9055C30.19 33.75 35.2331 28.7069 35.2331 22.4224C35.2331 16.2155 30.2676 11.25 24.1383 11.25ZM18.4735 16.682H17.9304C19.7149 17.9234 20.9563 20.0182 20.9563 22.4234C20.9563 24.8286 19.7925 26.9234 17.9304 28.1648H18.4735C21.6545 28.1648 24.2149 25.6044 24.2149 22.4234C24.2149 19.2424 21.6545 16.682 18.4735 16.682ZM13.973 28.6296C17.3868 28.6296 20.1799 25.8365 20.1799 22.4227C20.1799 19.0089 17.4644 16.2158 13.973 16.2158C10.5592 16.2158 7.76611 19.0089 7.76611 22.4227C7.76611 25.8365 10.5592 28.6296 13.973 28.6296Z" fill="white"/>
</svg>
