<svg width="62" height="62" viewBox="0 0 62 62" fill="none" xmlns="http://www.w3.org/2000/svg">
<circle cx="31" cy="31" r="31" fill="#F99602"/>
<path d="M37.8101 18.025L39.36 12.2127L35.8727 11.244L34.5165 16.8625C33.5477 16.6688 32.579 16.4751 31.6103 16.2813L32.9665 10.469L29.2854 9.69403L27.9292 15.5063C27.1542 15.3126 26.3792 15.1189 25.6042 14.9251L20.7606 13.7626L19.7919 17.6375C19.7919 17.6375 22.5043 18.2188 22.3106 18.2188C23.6668 18.6062 24.0543 19.575 24.0543 20.3499L19.9857 36.2369C19.7919 36.6244 19.4044 37.3994 18.242 37.0119L15.7233 36.4307L13.9796 40.4993L18.6295 41.6617L21.1481 42.243L19.5982 48.0553L23.0856 49.024L24.6355 43.2117C25.6042 43.4054 26.573 43.7929 27.5417 43.9867L26.1855 49.799L29.6729 50.7677L31.2228 44.9554C37.2289 46.1178 41.8787 45.7304 43.8162 40.1118C45.3661 35.6557 43.8162 33.137 40.5225 31.5871C42.8474 31.0058 44.5911 29.4559 44.9786 26.356C45.5598 21.8999 42.46 19.575 37.8101 18.025ZM36.8414 37.5931C35.6789 42.0492 28.3167 39.5306 25.9917 38.9493L27.9292 31.1996C30.2541 31.7808 38.0038 32.9433 36.8414 37.5931ZM38.0038 26.1622C37.0351 30.2309 30.8353 28.0997 28.8979 27.7122L30.6416 20.5437C32.579 20.9312 38.9726 21.8999 38.0038 26.1622Z" fill="white"/>
</svg>
