<svg width="200" height="31" viewBox="0 0 200 31" fill="none" xmlns="http://www.w3.org/2000/svg">
<circle cx="15" cy="15.5" r="15" fill="#F99602"/>
<path d="M18.2945 9.22204L19.0445 6.40963L17.3571 5.94089L16.7008 8.65955C16.2321 8.56581 15.7634 8.47206 15.2946 8.37831L15.9509 5.56591L14.1697 5.19092L13.5135 8.00333C13.1385 7.90958 12.7635 7.81583 12.3885 7.72209L10.0448 7.1596L9.57608 9.03454C9.57608 9.03454 10.8885 9.31578 10.7948 9.31578C11.451 9.50328 11.6385 9.97201 11.6385 10.347L9.66983 18.0343C9.57608 18.2217 9.38859 18.5967 8.8261 18.4092L7.60739 18.128L6.76367 20.0967L9.0136 20.6592L10.2323 20.9404L9.48233 23.7528L11.1698 24.2215L11.9198 21.4091C12.3885 21.5029 12.8572 21.6904 13.326 21.7841L12.6697 24.5965L14.3572 25.0653L15.1071 22.2529C18.0133 22.8153 20.2632 22.6279 21.2007 19.9092C21.9507 17.753 21.2007 16.5343 19.607 15.7843C20.732 15.5031 21.5757 14.7531 21.7632 13.2532C22.0444 11.097 20.5445 9.97201 18.2945 9.22204ZM17.8258 18.6905C17.2633 20.8467 13.7009 19.6279 12.576 19.3467L13.5135 15.5968C14.6384 15.8781 18.3883 16.4406 17.8258 18.6905ZM18.3883 13.1594C17.9196 15.1281 14.9197 14.0969 13.9822 13.9094L14.8259 10.4407C15.7634 10.6282 18.857 11.097 18.3883 13.1594Z" fill="white"/>
<path d="M50 8.5L48.59 9.91L53.17 14.5L37 14.5L37 16.5L53.17 16.5L48.58 21.09L50 22.5L57 15.5L50 8.5Z" fill="#9AA5B8"/>
<path fill-rule="evenodd" clip-rule="evenodd" d="M99.0094 8.53611V14.3965H108.447V18.5064H99.0094V26.6501H93.834V4.3501H110.654V8.46001H99.0094V8.53611ZM80.0578 4.57812H71.9902V9.06857H78.764C82.3411 9.06857 85.3094 12.0368 85.3094 15.614C85.3094 19.1911 82.3411 22.1594 78.764 22.1594H71.9902V26.6498H79.8295C85.9943 26.6498 90.9414 21.7027 90.9414 15.5379C90.9414 9.44912 86.0705 4.57812 80.0578 4.57812ZM123.745 18.887L129.149 26.6501V26.574H135.009L126.713 15.0815L134.476 4.3501H128.92L123.897 11.5805L118.798 4.3501H112.937L120.777 15.3098L112.557 26.6501H118.493L123.745 18.887Z" fill="white"/>
<path d="M74.5035 9.90625C74.3512 9.90625 74.199 9.90625 73.9707 9.90625C75.7212 11.124 76.939 13.1789 76.939 15.5383C76.939 17.8977 75.7973 19.9527 73.9707 21.1704C74.1229 21.1704 74.2751 21.1704 74.5035 21.1704C77.6239 21.1704 80.1356 18.6588 80.1356 15.5383C80.1356 12.4179 77.6239 9.90625 74.5035 9.90625Z" fill="#F5516C"/>
<path d="M76.1775 15.538C76.1775 18.8868 73.4376 21.6267 70.0887 21.6267C66.7399 21.6267 64 18.8868 64 15.538C64 12.1892 66.7399 9.44922 70.0887 9.44922C73.5137 9.44922 76.1775 12.1892 76.1775 15.538Z" fill="#F5516C"/>
<path d="M155.009 8.5L153.599 9.91L158.179 14.5L142.009 14.5L142.009 16.5L158.179 16.5L153.589 21.09L155.009 22.5L162.009 15.5L155.009 8.5Z" fill="#9AA5B8"/>
<path d="M184.009 0.5C175.75 0.5 169.009 7.24051 169.009 15.5C169.009 23.7595 175.75 30.5 184.009 30.5C192.269 30.5 199.009 23.7595 199.009 15.5C199.104 7.24051 192.269 0.5 184.009 0.5Z" fill="#F9E9D3"/>
<path d="M187.478 9.21875L188.228 6.40625L186.54 5.9375L185.884 8.65625C185.415 8.5625 184.947 8.46875 184.478 8.375L185.134 5.5625L183.353 5.1875L182.697 8C182.322 7.90625 181.947 7.8125 181.572 7.71875L179.228 7.15625L178.759 9.03125C178.759 9.03125 180.072 9.3125 179.978 9.3125C180.634 9.5 180.822 9.96875 180.822 10.3437L178.853 18.0312C178.759 18.2187 178.572 18.5937 178.009 18.4062L176.79 18.125L175.947 20.0937L178.197 20.6562L179.415 20.9375L178.665 23.75L180.353 24.2187L181.103 21.4062C181.572 21.5 182.04 21.6875 182.509 21.7812L181.853 24.5937L183.54 25.0625L184.29 22.25C187.197 22.8125 189.447 22.625 190.384 19.9062C191.134 17.75 190.384 16.5312 188.79 15.7812C189.915 15.5 190.759 14.75 190.947 13.25C191.228 11.0938 189.728 9.96875 187.478 9.21875ZM187.009 18.6875C186.447 20.8437 182.884 19.625 181.759 19.3437L182.697 15.5937C183.822 15.875 187.572 16.4375 187.009 18.6875ZM187.572 13.1562C187.103 15.125 184.103 14.0937 183.165 13.9062L184.009 10.4375C184.947 10.625 188.04 11.0937 187.572 13.1562Z" fill="#E9973D"/>
</svg>
