<svg width="142" height="30" viewBox="0 0 142 30" fill="none" xmlns="http://www.w3.org/2000/svg">
<circle cx="15.4955" cy="15" r="15" fill="#F99602"/>
<path d="M18.7901 8.72204L19.5401 5.90963L17.8526 5.44089L17.1964 8.15955C16.7277 8.06581 16.2589 7.97206 15.7902 7.87831L16.4464 5.06591L14.6652 4.69092L14.009 7.50333C13.634 7.40958 13.259 7.31583 12.884 7.22209L10.5404 6.6596L10.0716 8.53454C10.0716 8.53454 11.3841 8.81578 11.2903 8.81578C11.9466 9.00328 12.1341 9.47201 12.1341 9.847L10.1654 17.5343C10.0716 17.7217 9.88413 18.0967 9.32165 17.9092L8.10294 17.628L7.25922 19.5967L9.50914 20.1592L10.7279 20.4404L9.97788 23.2528L11.6653 23.7215L12.4153 20.9091C12.884 21.0029 13.3528 21.1904 13.8215 21.2841L13.1653 24.0965L14.8527 24.5653L15.6027 21.7529C18.5088 22.3153 20.7588 22.1279 21.6962 19.4092C22.4462 17.253 21.6962 16.0343 20.1025 15.2843C21.2275 15.0031 22.0712 14.2531 22.2587 12.7532C22.54 10.597 21.04 9.47201 18.7901 8.72204ZM18.3214 18.1905C17.7589 20.3467 14.1965 19.1279 13.0715 18.8467L14.009 15.0968C15.134 15.3781 18.8838 15.9406 18.3214 18.1905ZM18.8838 12.6594C18.4151 14.6281 15.4152 13.5969 14.4777 13.4094L15.3215 9.94075C16.2589 10.1282 19.3526 10.597 18.8838 12.6594Z" fill="white"/>
<path d="M53.4955 8L52.0855 9.41L56.6655 14L40.4955 14L40.4955 16L56.6655 16L52.0755 20.59L53.4955 22L60.4955 15L53.4955 8Z" fill="#9AA5B8"/>
<path fill-rule="evenodd" clip-rule="evenodd" d="M105.505 8.03611V13.8965H114.942V18.0064H105.505V26.1501H100.329V3.8501H117.15V7.96001H105.505V8.03611ZM86.5533 4.07837H78.4857V8.56881H85.2594C88.8365 8.56881 91.8048 11.5371 91.8048 15.1142C91.8048 18.6914 88.8365 21.6596 85.2594 21.6596H78.4857V26.1501H86.3249C92.4898 26.1501 97.4369 21.203 97.4369 15.0381C97.4369 8.94936 92.5659 4.07837 86.5533 4.07837ZM130.24 18.387L135.644 26.1501V26.074H141.505L133.209 14.5815L140.972 3.8501H135.416L130.393 11.0805L125.293 3.8501H119.433L127.272 14.8098L119.052 26.1501H124.989L130.24 18.387Z" fill="white"/>
<path d="M80.9989 9.40625C80.8467 9.40625 80.6945 9.40625 80.4662 9.40625C82.2167 10.624 83.4344 12.6789 83.4344 15.0383C83.4344 17.3977 82.2928 19.4527 80.4662 20.6704C80.6184 20.6704 80.7706 20.6704 80.9989 20.6704C84.1194 20.6704 86.631 18.1588 86.631 15.0383C86.631 11.9179 84.1194 9.40625 80.9989 9.40625Z" fill="#F5516C"/>
<path d="M82.6729 15.038C82.6729 18.3868 79.933 21.1267 76.5842 21.1267C73.2354 21.1267 70.4955 18.3868 70.4955 15.038C70.4955 11.6892 73.2354 8.94922 76.5842 8.94922C80.0091 8.94922 82.6729 11.6892 82.6729 15.038Z" fill="#F5516C"/>
</svg>
