<svg width="63" height="62" viewBox="0 0 63 62" fill="none" xmlns="http://www.w3.org/2000/svg">
<path d="M31 62C13.8834 62 0 48.1166 0 31C0 13.8834 13.8834 0 31 0C48.1166 0 62 13.8834 62 31C62.1902 47.9264 48.1166 62 31 62Z" fill="#E933AB"/>
<path d="M31 9.6875V27.4127C29.9449 26.3577 29.1009 25.5136 28.0458 24.4585C28.0458 22.7704 27.6238 18.1281 27.6238 18.1281L30.367 9.6875C28.6788 9.6875 26.9907 9.89852 25.5136 10.3205L24.0365 14.5408L20.2382 12.6417C18.7611 13.4858 17.495 14.5408 16.229 15.5959L23.1924 19.1832L23.4035 23.4035L19.1832 23.1924L15.8069 16.0179C14.5408 17.284 13.6968 18.5501 12.6417 20.0272L14.5408 23.8255L10.3205 25.3026C9.89851 26.9907 9.6875 28.6788 9.6875 30.3669L18.1281 27.6238L24.8806 27.8348L27.6238 30.578L24.8806 33.7432L18.1281 33.9542L9.6875 31.211C9.6875 32.8991 9.89851 34.5872 10.3205 36.2754L14.5408 37.7525L12.6417 41.5507C13.4858 43.0278 14.5408 44.2939 15.8069 45.56L19.3942 38.5965L23.6145 38.3855L23.4035 42.6058L16.44 46.193C17.7061 47.4591 18.9722 48.3032 20.4493 49.1473L24.2475 47.2481L25.7246 51.2574C27.2017 51.6794 28.8899 51.8904 30.578 51.8904L27.8348 43.6609C27.8348 43.6609 28.0458 39.0185 28.2568 37.3304C29.3119 36.2754 30.1559 35.4313 31.211 34.3762V52.1015C42.8168 52.1015 52.3125 42.6058 52.3125 31C51.8905 19.1832 42.6058 9.6875 31 9.6875ZM35.6423 46.6151C35.6423 36.0643 35.6423 25.5136 35.6423 15.1739C40.7067 16.229 47.2481 21.9264 47.4592 30.3669C47.6702 39.4406 40.7067 45.349 35.6423 46.6151Z" fill="white"/>
</svg>
