<svg width="312" height="241" viewBox="0 0 312 241" fill="none" xmlns="http://www.w3.org/2000/svg">
<g clip-path="url(#clip0_3509_4739)">
<path opacity="0.08" d="M191.464 240.987C257.738 240.987 311.464 187.261 311.464 120.987C311.464 54.7124 257.738 0.986572 191.464 0.986572C125.19 0.986572 71.4639 54.7124 71.4639 120.987C71.4639 187.261 125.19 240.987 191.464 240.987Z" fill="#F5516C"/>
<path opacity="0.14" d="M109.574 230.56C170.09 230.56 219.148 181.503 219.148 120.987C219.148 60.4705 170.09 11.4126 109.574 11.4126C49.0579 11.4126 0 60.4705 0 120.987C0 181.503 49.0579 230.56 109.574 230.56Z" fill="#F5516C" fill-opacity="0.9"/>
<path d="M131.794 94.5039H144.916V107.291H167.621" stroke="#F5516C" stroke-width="2" stroke-miterlimit="10"/>
<path d="M131.917 97.021C133.307 97.021 134.434 95.894 134.434 94.5038C134.434 93.1136 133.307 91.9866 131.917 91.9866C130.526 91.9866 129.399 93.1136 129.399 94.5038C129.399 95.894 130.526 97.021 131.917 97.021Z" fill="#F5516C"/>
<path d="M167.498 109.813C168.887 109.813 170.015 108.686 170.015 107.296C170.015 105.907 168.887 104.779 167.498 104.779C166.108 104.779 164.98 105.907 164.98 107.296C164.98 108.686 166.108 109.813 167.498 109.813Z" fill="#F5516C"/>
<path d="M131.794 124.772H153.634V117.097H167.621" stroke="#F5516C" stroke-width="2" stroke-miterlimit="10"/>
<path d="M131.917 127.289C133.307 127.289 134.434 126.162 134.434 124.772C134.434 123.382 133.307 122.255 131.917 122.255C130.526 122.255 129.399 123.382 129.399 124.772C129.399 126.162 130.526 127.289 131.917 127.289Z" fill="#F5516C"/>
<path d="M167.498 119.62C168.887 119.62 170.015 118.493 170.015 117.103C170.015 115.713 168.887 114.586 167.498 114.586C166.108 114.586 164.98 115.713 164.98 117.103C164.98 118.493 166.108 119.62 167.498 119.62Z" fill="#F5516C"/>
<path d="M148.979 133.462H159.41V126.965H167.62" stroke="#F5516C" stroke-width="2" stroke-miterlimit="10"/>
<path d="M149.107 135.979C150.497 135.979 151.624 134.852 151.624 133.462C151.624 132.072 150.497 130.945 149.107 130.945C147.717 130.945 146.59 132.072 146.59 133.462C146.59 134.852 147.717 135.979 149.107 135.979Z" fill="#F5516C"/>
<path d="M167.498 129.482C168.887 129.482 170.015 128.355 170.015 126.965C170.015 125.575 168.887 124.448 167.498 124.448C166.108 124.448 164.98 125.575 164.98 126.965C164.98 128.355 166.108 129.482 167.498 129.482Z" fill="#F5516C"/>
<path d="M131.794 147.628H139.976V141.131H167.621" stroke="#F5516C" stroke-width="2" stroke-miterlimit="10"/>
<path d="M131.917 150.145C133.307 150.145 134.434 149.018 134.434 147.628C134.434 146.238 133.307 145.111 131.917 145.111C130.526 145.111 129.399 146.238 129.399 147.628C129.399 149.018 130.526 150.145 131.917 150.145Z" fill="#F5516C"/>
<path d="M167.498 143.648C168.887 143.648 170.015 142.521 170.015 141.131C170.015 139.741 168.887 138.614 167.498 138.614C166.108 138.614 164.98 139.741 164.98 141.131C164.98 142.521 166.108 143.648 167.498 143.648Z" fill="#F5516C"/>
<path d="M131.794 105.181H139.161V115.702H145.703" stroke="#F5516C" stroke-width="2" stroke-miterlimit="10"/>
<path d="M131.917 107.698C133.307 107.698 134.434 106.571 134.434 105.181C134.434 103.791 133.307 102.664 131.917 102.664C130.526 102.664 129.399 103.791 129.399 105.181C129.399 106.571 130.526 107.698 131.917 107.698Z" fill="#F5516C"/>
<path d="M145.574 118.219C146.964 118.219 148.091 117.092 148.091 115.702C148.091 114.312 146.964 113.185 145.574 113.185C144.184 113.185 143.057 114.312 143.057 115.702C143.057 117.092 144.184 118.219 145.574 118.219Z" fill="#F5516C"/>
<path d="M259.188 125.081C259.188 123.374 257.801 121.987 256.094 121.987C254.387 121.987 253 123.374 253 125.081C253 126.313 253.722 127.37 254.758 127.871V132.898C254.717 133.373 255.021 133.796 255.413 133.796H256.77C257.162 133.796 257.466 133.378 257.419 132.898V127.871C258.461 127.37 259.183 126.313 259.183 125.081H259.188Z" fill="#072440"/>
<g filter="url(#filter0_d_3509_4739)">
<path d="M111.287 52.9866H64.9854C58.382 52.9866 53 58.3741 53 64.972V177.001C53 183.632 58.3876 188.987 64.9854 188.987H111.282C117.913 188.987 123.267 183.599 123.267 177.001V64.972C123.301 58.3686 117.913 52.9866 111.282 52.9866H111.287Z" fill="#072440"/>
<path d="M111.287 52.9866H64.9854C58.382 52.9866 53 58.3741 53 64.972V177.001C53 183.632 58.3876 188.987 64.9854 188.987H111.282C117.913 188.987 123.267 183.599 123.267 177.001V64.972C123.301 58.3686 117.913 52.9866 111.282 52.9866H111.287ZM111.321 185.936H64.9854C60.0663 185.936 56.0786 181.948 56.0786 177.029V64.972C56.0786 60.0529 60.0663 56.0652 64.9854 56.0652H73.2341C73.6691 56.0652 74.0149 56.4054 74.0149 56.846V57.1249C74.0762 59.0267 75.6323 60.5214 77.5341 60.5214H98.7051C100.607 60.5214 102.163 59.0267 102.224 57.1249V56.846C102.224 56.411 102.598 56.0652 103.005 56.0652H111.254C116.173 56.0652 120.161 60.0529 120.161 64.972V177.029H120.222C120.222 181.948 116.234 185.936 111.315 185.936H111.321Z" fill="#0961C3"/>
</g>
<path d="M106.809 154.361H69.4583C66.6584 154.361 64.3887 156.63 64.3887 159.43V159.436C64.3887 162.236 66.6584 164.506 69.4583 164.506H106.809C109.609 164.506 111.879 162.236 111.879 159.436V159.43C111.879 156.63 109.609 154.361 106.809 154.361Z" fill="#F5516C"/>
<path d="M76.9099 174.169H76.4805V172.206H77.4119C77.5011 172.206 77.5848 172.223 77.6573 172.25C77.7298 172.278 77.7911 172.323 77.8469 172.379C77.8971 172.434 77.9361 172.501 77.964 172.579C77.9919 172.658 78.0086 172.741 78.0086 172.836C78.0086 172.97 77.9807 173.087 77.9194 173.187C77.858 173.288 77.7688 173.36 77.6517 173.405L78.0365 174.175H77.5624L77.2167 173.455H76.9099V174.175V174.169ZM77.3617 173.087C77.423 173.087 77.4732 173.07 77.5122 173.037C77.5513 173.003 77.568 172.953 77.568 172.892V172.769C77.568 172.708 77.5513 172.658 77.5122 172.624C77.4732 172.591 77.423 172.574 77.3617 172.574H76.9099V173.087H77.3617Z" fill="white"/>
<path d="M78.3828 174.169V172.206H79.7213V172.585H78.8123V172.987H79.5931V173.366H78.8123V173.79H79.7213V174.169H78.3828Z" fill="white"/>
<path d="M80.7249 174.202C80.552 174.202 80.407 174.175 80.2843 174.113C80.1672 174.052 80.0612 173.979 79.9775 173.885L80.2564 173.6C80.3903 173.751 80.552 173.823 80.7472 173.823C80.8532 173.823 80.9312 173.801 80.9814 173.756C81.0316 173.712 81.0595 173.656 81.0595 173.589C81.0595 173.533 81.0428 173.489 81.0149 173.455C80.987 173.422 80.9257 173.394 80.8308 173.383L80.6356 173.355C80.4293 173.327 80.2731 173.265 80.1783 173.165C80.0835 173.065 80.0333 172.931 80.0333 172.769C80.0333 172.68 80.05 172.602 80.0835 172.529C80.117 172.457 80.1672 172.395 80.2285 172.34C80.2899 172.289 80.3679 172.245 80.4572 172.217C80.5464 172.189 80.6524 172.172 80.7695 172.172C80.9201 172.172 81.0484 172.195 81.1599 172.245C81.2714 172.289 81.3718 172.362 81.4499 172.451L81.1655 172.741C81.1209 172.685 81.0595 172.641 80.9926 172.607C80.9257 172.574 80.842 172.557 80.7416 172.557C80.6468 172.557 80.5743 172.574 80.5297 172.607C80.4851 172.641 80.4572 172.685 80.4572 172.747C80.4572 172.814 80.4739 172.864 80.5129 172.892C80.552 172.92 80.6078 172.942 80.6914 172.953L80.8866 172.987C81.0874 173.02 81.238 173.081 81.3384 173.176C81.4332 173.271 81.4834 173.399 81.4834 173.572C81.4834 173.667 81.4666 173.751 81.4332 173.829C81.3997 173.907 81.3495 173.974 81.2882 174.03C81.2213 174.085 81.1432 174.13 81.0484 174.158C80.9535 174.191 80.842 174.202 80.7193 174.202H80.7249Z" fill="white"/>
<path d="M82.5989 172.585V174.169H82.1695V172.585H81.6396V172.206H83.1288V172.585H82.5989Z" fill="white"/>
<path d="M84.1438 174.202C84.0155 174.202 83.8984 174.18 83.7868 174.135C83.6809 174.091 83.586 174.029 83.5135 173.94C83.441 173.857 83.3797 173.751 83.3406 173.622C83.3016 173.494 83.2793 173.349 83.2793 173.182C83.2793 173.014 83.3016 172.869 83.3406 172.741C83.3797 172.613 83.441 172.507 83.5135 172.423C83.586 172.34 83.6809 172.273 83.7868 172.228C83.8928 172.183 84.0099 172.161 84.1438 172.161C84.2776 172.161 84.3892 172.183 84.5007 172.228C84.6067 172.273 84.6959 172.334 84.774 172.423C84.8465 172.507 84.9078 172.613 84.9469 172.741C84.9859 172.869 85.0082 173.014 85.0082 173.182C85.0082 173.349 84.9859 173.494 84.9469 173.622C84.9078 173.751 84.8465 173.857 84.774 173.94C84.7015 174.024 84.6067 174.091 84.5007 174.135C84.3947 174.18 84.2776 174.202 84.1438 174.202ZM84.1438 173.823C84.272 173.823 84.3724 173.779 84.4449 173.695C84.5174 173.611 84.5509 173.489 84.5509 173.332V173.042C84.5509 172.886 84.5174 172.763 84.4449 172.68C84.3724 172.596 84.272 172.552 84.1438 172.552C84.0155 172.552 83.9151 172.596 83.8426 172.68C83.7701 172.763 83.7366 172.886 83.7366 173.042V173.332C83.7366 173.489 83.7701 173.611 83.8426 173.695C83.9151 173.779 84.0155 173.823 84.1438 173.823Z" fill="white"/>
<path d="M85.7888 174.169H85.3594V172.206H86.2908C86.38 172.206 86.4637 172.223 86.5362 172.25C86.6087 172.278 86.67 172.323 86.7258 172.379C86.776 172.434 86.815 172.501 86.8429 172.579C86.8708 172.658 86.8875 172.741 86.8875 172.836C86.8875 172.97 86.8596 173.087 86.7983 173.187C86.7369 173.288 86.6477 173.36 86.5306 173.405L86.9154 174.175H86.4414L86.0956 173.455H85.7888V174.175V174.169ZM86.2406 173.087C86.3019 173.087 86.3577 173.07 86.3912 173.037C86.4302 173.003 86.4469 172.953 86.4469 172.892V172.769C86.4469 172.708 86.4302 172.658 86.3912 172.624C86.3521 172.591 86.3019 172.574 86.2406 172.574H85.7888V173.087H86.2406Z" fill="white"/>
<path d="M87.2617 174.169V172.206H88.6002V172.585H87.6912V172.987H88.472V173.366H87.6912V173.79H88.6002V174.169H87.2617Z" fill="white"/>
<path d="M89.9442 174.169L89.498 172.206H89.9219L90.106 173.148L90.2119 173.695H90.2175L90.3402 173.148L90.5577 172.206H91.0262L91.2437 173.148L91.3664 173.695H91.372L91.4779 173.148L91.6676 172.206H92.0747L91.6174 174.169H91.1322L90.8868 173.104L90.792 172.674H90.7864L90.686 173.104L90.4406 174.169H89.9498H89.9442Z" fill="white"/>
<path d="M93.5019 174.169L93.3624 173.701H92.7043L92.5649 174.169H92.1299L92.7768 172.206H93.3067L93.9481 174.169H93.5019ZM93.039 172.591H93.0222L92.8047 173.338H93.2565L93.039 172.591Z" fill="white"/>
<path d="M94.2217 174.169V172.206H94.6511V173.79H95.3985V174.169H94.2217Z" fill="white"/>
<path d="M95.7109 174.169V172.206H96.1404V173.79H96.8877V174.169H95.7109Z" fill="white"/>
<path d="M97.2002 174.169V172.206H98.5387V172.585H97.6296V172.987H98.4105V173.366H97.6296V173.79H98.5387V174.169H97.2002Z" fill="white"/>
<path d="M99.7317 172.585V174.169H99.3023V172.585H98.7725V172.206H100.262V172.585H99.7317Z" fill="white"/>
<path d="M82.5532 144.768C83.006 144.768 83.3731 144.401 83.3731 143.948C83.3731 143.495 83.006 143.128 82.5532 143.128C82.1005 143.128 81.7334 143.495 81.7334 143.948C81.7334 144.401 82.1005 144.768 82.5532 144.768Z" fill="white"/>
<path d="M86.4351 144.768C86.8879 144.768 87.2549 144.401 87.2549 143.948C87.2549 143.495 86.8879 143.128 86.4351 143.128C85.9823 143.128 85.6152 143.495 85.6152 143.948C85.6152 144.401 85.9823 144.768 86.4351 144.768Z" fill="#9AA5B8"/>
<path d="M90.3169 144.768C90.7697 144.768 91.1368 144.401 91.1368 143.948C91.1368 143.495 90.7697 143.128 90.3169 143.128C89.8641 143.128 89.4971 143.495 89.4971 143.948C89.4971 144.401 89.8641 144.768 90.3169 144.768Z" fill="#9AA5B8"/>
<path d="M94.1929 144.768C94.6457 144.768 95.0127 144.401 95.0127 143.948C95.0127 143.495 94.6457 143.128 94.1929 143.128C93.7401 143.128 93.373 143.495 93.373 143.948C93.373 144.401 93.7401 144.768 94.1929 144.768Z" fill="#9AA5B8"/>
<path d="M82.7607 78.0337H80.8867V79.0655H82.4539C83.2849 79.0655 83.9598 79.7459 83.9598 80.5713C83.9598 81.3967 83.2793 82.0772 82.4539 82.0772H80.8867V83.1089H82.6993C84.1159 83.1089 85.2648 81.96 85.2648 80.5434C85.2648 79.1268 84.1438 78.0337 82.7551 78.0337H82.7607Z" fill="white"/>
<path d="M87.1437 78.9539V80.3147H89.3244V81.2684H87.1437V83.1424H85.9502V77.9946H89.8431V78.9483H87.1437V78.9539Z" fill="white"/>
<path d="M94.0933 83.148L92.8495 81.3633L91.6281 83.148H90.2617L92.1691 80.5323L90.3621 78.0002H91.7174L92.8997 79.6678L94.0598 78.0002H95.3481L93.5523 80.4877L95.4708 83.148H94.0933Z" fill="white"/>
<path d="M81.4726 79.2663C81.4335 79.2663 81.3945 79.2663 81.3555 79.2663C81.7682 79.5507 82.0359 80.0248 82.0359 80.5658C82.0359 81.1068 81.7682 81.5808 81.3555 81.8653C81.3945 81.8653 81.4335 81.8653 81.4726 81.8653C82.192 81.8653 82.7777 81.2797 82.7777 80.5602C82.7777 79.8407 82.192 79.2551 81.4726 79.2551V79.2663Z" fill="#F5516C"/>
<path d="M81.8627 80.5712C81.8627 81.3465 81.2324 81.9767 80.4572 81.9767C79.682 81.9767 79.0518 81.3465 79.0518 80.5712C79.0518 79.796 79.682 79.1658 80.4572 79.1658C81.2324 79.1658 81.8627 79.796 81.8627 80.5712Z" fill="#F5516C"/>
<path d="M81.1758 85.7693H81.7C81.7949 85.7693 81.8841 85.786 81.9622 85.8195C82.0402 85.8529 82.1072 85.9031 82.1629 85.9645C82.2187 86.0258 82.2633 86.1095 82.2912 86.2099C82.3191 86.3047 82.3358 86.4218 82.3358 86.5501C82.3358 86.6784 82.3191 86.7955 82.2912 86.8903C82.2633 86.9851 82.2187 87.0688 82.1629 87.1357C82.1072 87.2026 82.0402 87.2472 81.9622 87.2807C81.8841 87.3142 81.7949 87.3309 81.7 87.3309H81.1758V85.7749V85.7693ZM81.7 87.1636C81.7614 87.1636 81.8227 87.1524 81.8785 87.1301C81.9343 87.1078 81.9789 87.0744 82.0179 87.0353C82.057 86.9963 82.0849 86.9405 82.1072 86.8847C82.1295 86.829 82.1406 86.7565 82.1406 86.6784V86.4218C82.1406 86.3437 82.1295 86.2768 82.1072 86.2155C82.0849 86.1541 82.057 86.1039 82.0179 86.0649C81.9789 86.0258 81.9343 85.9924 81.8785 85.9701C81.8227 85.9478 81.767 85.9366 81.7 85.9366H81.3654V87.1636H81.7Z" fill="#8690A1"/>
<path d="M83.089 87.3589C83.0109 87.3589 82.9384 87.3422 82.8771 87.3143C82.8157 87.2864 82.7599 87.2474 82.7153 87.1916C82.6707 87.1414 82.6372 87.0745 82.6094 87.002C82.587 86.9295 82.5703 86.8458 82.5703 86.751C82.5703 86.6562 82.5815 86.5781 82.6094 86.5056C82.6372 86.4331 82.6707 86.3662 82.7153 86.316C82.7599 86.2658 82.8157 86.2212 82.8771 86.1933C82.9384 86.1654 83.0109 86.1487 83.089 86.1487C83.1671 86.1487 83.234 86.1654 83.2954 86.1933C83.3567 86.2212 83.4069 86.2602 83.4515 86.3104C83.4961 86.3606 83.5296 86.4164 83.5519 86.4889C83.5742 86.5558 83.5854 86.6339 83.5854 86.712V86.7956H82.7599V86.8514C82.7599 86.9016 82.7655 86.9462 82.7822 86.9908C82.799 87.0355 82.8213 87.0689 82.8492 87.1024C82.8771 87.1358 82.9161 87.1582 82.9551 87.1749C82.9998 87.1916 83.0444 87.2028 83.1001 87.2028C83.1727 87.2028 83.234 87.186 83.2898 87.1526C83.3455 87.1191 83.3846 87.0689 83.418 87.0076L83.5463 87.1024C83.5073 87.1805 83.4515 87.2474 83.3734 87.292C83.2953 87.3422 83.2005 87.3645 83.0946 87.3645L83.089 87.3589ZM83.089 86.3048C83.0388 86.3048 82.9942 86.316 82.9551 86.3327C82.9161 86.3495 82.8826 86.3718 82.8492 86.4052C82.8213 86.4387 82.799 86.4722 82.7822 86.5168C82.7655 86.5614 82.7599 86.606 82.7599 86.6562V86.6729H83.3957V86.6506C83.3957 86.5502 83.3679 86.4666 83.3121 86.4052C83.2563 86.3439 83.1838 86.3104 83.089 86.3104V86.3048Z" fill="#8690A1"/>
<path d="M84.31 87.3589C84.2319 87.3589 84.1594 87.3422 84.0925 87.3143C84.0311 87.2864 83.9753 87.2474 83.9307 87.1916C83.8861 87.1414 83.8526 87.0745 83.8303 87.002C83.808 86.9295 83.7969 86.8458 83.7969 86.751C83.7969 86.6562 83.808 86.5781 83.8303 86.5C83.8526 86.4275 83.8861 86.3606 83.9307 86.3104C83.9753 86.2602 84.0311 86.2156 84.0925 86.1877C84.1538 86.1598 84.2263 86.1431 84.31 86.1431C84.4271 86.1431 84.5163 86.1654 84.5833 86.2156C84.6502 86.2658 84.706 86.3327 84.7394 86.4108L84.5888 86.4889C84.5665 86.4275 84.5331 86.3829 84.4884 86.3494C84.4383 86.316 84.3825 86.2992 84.31 86.2992C84.2542 86.2992 84.2096 86.3104 84.1705 86.3271C84.1315 86.3438 84.098 86.3662 84.0702 86.3996C84.0423 86.4275 84.0255 86.4665 84.0088 86.5112C83.9977 86.5558 83.9865 86.6004 83.9865 86.6506V86.8458C83.9865 86.9462 84.0144 87.0298 84.0702 87.0968C84.1259 87.1637 84.204 87.1916 84.31 87.1916C84.455 87.1916 84.5609 87.1247 84.6223 86.9908L84.7506 87.08C84.7115 87.1637 84.6558 87.2306 84.5833 87.2808C84.5108 87.331 84.4159 87.3533 84.31 87.3533V87.3589Z" fill="#8690A1"/>
<path d="M85.4259 87.3589C85.3478 87.3589 85.2753 87.3422 85.214 87.3143C85.1526 87.2864 85.0969 87.2474 85.0522 87.1916C85.0076 87.1414 84.9742 87.0745 84.9463 87.002C84.924 86.9295 84.9072 86.8458 84.9072 86.751C84.9072 86.6562 84.9184 86.5781 84.9463 86.5056C84.9742 86.4331 85.0076 86.3662 85.0522 86.316C85.0969 86.2658 85.1526 86.2212 85.214 86.1933C85.2753 86.1654 85.3478 86.1487 85.4259 86.1487C85.504 86.1487 85.5709 86.1654 85.6323 86.1933C85.6936 86.2212 85.7438 86.2602 85.7884 86.3104C85.833 86.3606 85.8665 86.4164 85.8888 86.4889C85.9111 86.5558 85.9223 86.6339 85.9223 86.712V86.7956H85.0968V86.8514C85.0968 86.9016 85.1024 86.9462 85.1192 86.9908C85.1359 87.0355 85.1582 87.0689 85.1861 87.1024C85.214 87.1358 85.253 87.1582 85.2921 87.1749C85.3367 87.1916 85.3813 87.2028 85.4371 87.2028C85.5096 87.2028 85.5709 87.186 85.6267 87.1526C85.6825 87.1191 85.7215 87.0689 85.755 87.0076L85.8832 87.1024C85.8442 87.1805 85.7884 87.2474 85.7103 87.292C85.6323 87.3422 85.5375 87.3645 85.4315 87.3645L85.4259 87.3589ZM85.4259 86.3048C85.3757 86.3048 85.3311 86.316 85.2921 86.3327C85.253 86.3495 85.2195 86.3718 85.1861 86.4052C85.1582 86.4387 85.1359 86.4722 85.1192 86.5168C85.1024 86.5614 85.0968 86.606 85.0968 86.6562V86.6729H85.7327V86.6506C85.7327 86.5502 85.7048 86.4666 85.649 86.4052C85.5932 86.3439 85.5207 86.3104 85.4259 86.3104V86.3048Z" fill="#8690A1"/>
<path d="M86.2178 87.3308V86.1819H86.3962V86.366H86.4074C86.4353 86.2991 86.4743 86.2489 86.5245 86.2098C86.5747 86.1708 86.6472 86.1541 86.7309 86.1541C86.848 86.1541 86.9428 86.1931 87.0153 86.2712C87.0822 86.3493 87.1213 86.4552 87.1213 86.5946V87.3308H86.9428V86.6225C86.9428 86.4162 86.8536 86.3102 86.6807 86.3102C86.6472 86.3102 86.6082 86.3102 86.5747 86.3214C86.5413 86.3325 86.5134 86.3437 86.4855 86.3604C86.4576 86.3771 86.4353 86.3994 86.4241 86.4273C86.413 86.4552 86.4018 86.4887 86.4018 86.5221V87.3253H86.2234L86.2178 87.3308Z" fill="#8690A1"/>
<path d="M87.7396 87.3308C87.6783 87.3308 87.6281 87.3141 87.6002 87.2806C87.5667 87.2472 87.55 87.2025 87.55 87.1412V86.3381H87.3604V86.1819H87.4663C87.5054 86.1819 87.5332 86.1763 87.5444 86.1596C87.5611 86.1429 87.5667 86.115 87.5667 86.0759V85.864H87.7284V86.1819H87.9794V86.3381H87.7284V87.1747H87.9627V87.3308H87.7396Z" fill="#8690A1"/>
<path d="M88.2702 87.331V86.1821H88.4487V86.3941H88.4599C88.4822 86.3383 88.5156 86.2881 88.5714 86.2491C88.6272 86.2044 88.6997 86.1821 88.7945 86.1821H88.8614V86.3606H88.7554C88.6606 86.3606 88.5825 86.3773 88.5268 86.4164C88.471 86.4554 88.4431 86.5 88.4431 86.5558V87.3366H88.2646L88.2702 87.331Z" fill="#8690A1"/>
<path d="M89.9151 87.331C89.8481 87.331 89.798 87.3142 89.7701 87.2752C89.7422 87.2417 89.7254 87.1971 89.7143 87.1413H89.7031C89.6753 87.2139 89.6362 87.264 89.5804 87.3031C89.5247 87.3421 89.4522 87.3589 89.3741 87.3589C89.2514 87.3589 89.1566 87.3254 89.0896 87.264C89.0227 87.2027 88.9893 87.119 88.9893 87.0075C88.9893 86.896 89.0283 86.8179 89.1064 86.7565C89.1845 86.7007 89.3072 86.6673 89.48 86.6673H89.7087V86.5557C89.7087 86.4721 89.6864 86.4107 89.6418 86.3661C89.5972 86.3215 89.5302 86.2992 89.4354 86.2992C89.3629 86.2992 89.3072 86.3159 89.2625 86.3438C89.2179 86.3717 89.1789 86.4163 89.1454 86.4665L89.0395 86.3661C89.0729 86.3048 89.1231 86.249 89.19 86.2044C89.257 86.1598 89.3462 86.1375 89.4466 86.1375C89.586 86.1375 89.6976 86.1709 89.7701 86.2378C89.8481 86.3048 89.8872 86.3996 89.8872 86.5223V87.1525H90.021V87.3087H89.9206L89.9151 87.331ZM89.402 87.2083C89.4466 87.2083 89.4856 87.2083 89.5247 87.1915C89.5637 87.1804 89.5916 87.1637 89.6195 87.1469C89.6474 87.1302 89.6697 87.1079 89.6808 87.08C89.6976 87.0521 89.7031 87.0298 89.7031 86.9963V86.8067H89.4689C89.3685 86.8067 89.2904 86.8234 89.2458 86.8513C89.2012 86.8792 89.1733 86.9238 89.1733 86.9796V87.0242C89.1733 87.08 89.1956 87.1246 89.2347 87.1581C89.2737 87.1915 89.3295 87.2027 89.402 87.2027V87.2083Z" fill="#8690A1"/>
<path d="M90.4611 87.331C90.3998 87.331 90.3496 87.3143 90.3217 87.2808C90.2882 87.2474 90.2715 87.2028 90.2715 87.147V85.6802H90.45V87.1749H90.6173V87.331H90.4611Z" fill="#8690A1"/>
<path d="M90.9631 85.9088C90.9241 85.9088 90.8962 85.8977 90.8794 85.881C90.8627 85.8642 90.8516 85.8363 90.8516 85.8085V85.7806C90.8516 85.7527 90.8627 85.7248 90.8794 85.7081C90.8962 85.6913 90.9241 85.6802 90.9631 85.6802C91.0021 85.6802 91.03 85.6913 91.0468 85.7081C91.0635 85.7248 91.0746 85.7527 91.0746 85.7806V85.8085C91.0746 85.8363 91.0635 85.8642 91.0468 85.881C91.03 85.8977 91.0021 85.9088 90.9631 85.9088ZM90.8739 86.1765H91.0523V87.3254H90.8739V86.1765Z" fill="#8690A1"/>
<path d="M91.7779 87.3587C91.672 87.3587 91.5827 87.3364 91.5102 87.2974C91.4377 87.2583 91.3764 87.2026 91.3262 87.1356L91.4544 87.0352C91.4991 87.091 91.5493 87.1356 91.605 87.1635C91.6608 87.1914 91.7222 87.2081 91.7947 87.2081C91.8672 87.2081 91.9285 87.1914 91.9731 87.1579C92.0177 87.1245 92.0345 87.0799 92.0345 87.0185C92.0345 86.9739 92.0177 86.9349 91.9899 86.9014C91.962 86.8679 91.9062 86.8456 91.8337 86.8345L91.7445 86.8233C91.6887 86.8177 91.6441 86.8066 91.5995 86.7899C91.5548 86.7731 91.5158 86.7508 91.4823 86.7285C91.4489 86.7006 91.421 86.6727 91.4043 86.6337C91.3875 86.5947 91.3764 86.55 91.3764 86.4943C91.3764 86.4385 91.3875 86.3883 91.4098 86.3437C91.4321 86.2991 91.46 86.2656 91.4935 86.2377C91.5325 86.2098 91.5716 86.1875 91.6218 86.1764C91.672 86.1596 91.7277 86.1541 91.7835 86.1541C91.8783 86.1541 91.9564 86.1708 92.0177 86.2042C92.0791 86.2377 92.1349 86.2823 92.1851 86.3381L92.0679 86.4441C92.0401 86.4106 92.0066 86.3771 91.9564 86.3493C91.9062 86.3214 91.8448 86.3046 91.7723 86.3046C91.6998 86.3046 91.6441 86.3214 91.605 86.3548C91.566 86.3883 91.5493 86.4329 91.5493 86.4831C91.5493 86.5333 91.566 86.5779 91.605 86.6058C91.6441 86.6337 91.6998 86.6504 91.7668 86.6616L91.856 86.6727C91.9843 86.6895 92.0735 86.7285 92.1293 86.7843C92.1851 86.84 92.2074 86.907 92.2074 86.9962C92.2074 87.1078 92.1683 87.197 92.0958 87.2583C92.0177 87.3197 91.9174 87.3531 91.7835 87.3531L91.7779 87.3587Z" fill="#8690A1"/>
<path d="M92.9552 87.3589C92.8771 87.3589 92.8046 87.3422 92.7433 87.3143C92.6819 87.2864 92.6261 87.2474 92.5815 87.1916C92.5369 87.1414 92.5034 87.0745 92.4756 87.002C92.4533 86.9295 92.4365 86.8458 92.4365 86.751C92.4365 86.6562 92.4477 86.5781 92.4756 86.5056C92.5034 86.4331 92.5369 86.3662 92.5815 86.316C92.6261 86.2658 92.6819 86.2212 92.7433 86.1933C92.8046 86.1654 92.8771 86.1487 92.9552 86.1487C93.0333 86.1487 93.1002 86.1654 93.1616 86.1933C93.2229 86.2212 93.2731 86.2602 93.3177 86.3104C93.3623 86.3606 93.3958 86.4164 93.4181 86.4889C93.4404 86.5558 93.4516 86.6339 93.4516 86.712V86.7956H92.6261V86.8514C92.6261 86.9016 92.6317 86.9462 92.6485 86.9908C92.6652 87.0355 92.6875 87.0689 92.7154 87.1024C92.7433 87.1358 92.7823 87.1582 92.8214 87.1749C92.866 87.1916 92.9106 87.2028 92.9664 87.2028C93.0389 87.2028 93.1002 87.186 93.156 87.1526C93.2118 87.1191 93.2508 87.0689 93.2843 87.0076L93.4125 87.1024C93.3735 87.1805 93.3177 87.2474 93.2396 87.292C93.1616 87.3422 93.0667 87.3645 92.9608 87.3645L92.9552 87.3589ZM92.9552 86.3048C92.905 86.3048 92.8604 86.316 92.8214 86.3327C92.7823 86.3495 92.7488 86.3718 92.7154 86.4052C92.6875 86.4387 92.6652 86.4722 92.6485 86.5168C92.6317 86.5614 92.6261 86.606 92.6261 86.6562V86.6729H93.262V86.6506C93.262 86.5502 93.2341 86.4666 93.1783 86.4052C93.1225 86.3439 93.05 86.3104 92.9552 86.3104V86.3048Z" fill="#8690A1"/>
<path d="M94.4829 87.1469H94.4718C94.3993 87.2863 94.2877 87.3588 94.1372 87.3588C94.0646 87.3588 94.0033 87.3421 93.9419 87.3142C93.8862 87.2863 93.836 87.2473 93.7914 87.1915C93.7523 87.1413 93.7189 87.0744 93.6966 87.0019C93.6742 86.9294 93.6631 86.8457 93.6631 86.7509C93.6631 86.6561 93.6742 86.578 93.6966 86.4999C93.7189 86.4274 93.7467 86.3605 93.7914 86.3103C93.8304 86.2601 93.8806 86.2155 93.9419 86.1876C93.9977 86.1597 94.0646 86.143 94.1372 86.143C94.2152 86.143 94.2877 86.1597 94.3435 86.1932C94.3993 86.2267 94.4439 86.2824 94.4718 86.3549H94.4829V85.6689H94.6614V87.3198H94.4829V87.1357V87.1469ZM94.1873 87.2027C94.2264 87.2027 94.2654 87.2027 94.3045 87.1859C94.3435 87.1692 94.3714 87.1581 94.3993 87.1413C94.4272 87.119 94.4495 87.0967 94.4606 87.0688C94.4774 87.0409 94.4829 87.0075 94.4829 86.9684V86.539C94.4829 86.5055 94.4774 86.4776 94.4606 86.4498C94.4439 86.4219 94.4216 86.3996 94.3993 86.3772C94.3714 86.3605 94.3435 86.3438 94.3045 86.3326C94.2654 86.3215 94.232 86.3159 94.1873 86.3159C94.087 86.3159 94.0089 86.3494 93.9475 86.4107C93.8918 86.4721 93.8583 86.5557 93.8583 86.6617V86.8569C93.8583 86.9629 93.8862 87.0409 93.9475 87.1079C94.0089 87.1748 94.087 87.2027 94.1873 87.2027Z" fill="#8690A1"/>
<path d="M81.1765 90.1027V88.5466H82.1023V88.7139H81.3605V89.2382H82.0354V89.4055H81.3605V90.1082H81.1709L81.1765 90.1027Z" fill="#8690A1"/>
<path d="M82.4983 88.6806C82.4592 88.6806 82.4313 88.6694 82.4146 88.6527C82.3979 88.636 82.3867 88.6081 82.3867 88.5802V88.5523C82.3867 88.5244 82.3979 88.4965 82.4146 88.4798C82.4313 88.4631 82.4592 88.4519 82.4983 88.4519C82.5373 88.4519 82.5652 88.4631 82.5819 88.4798C82.5987 88.4965 82.6098 88.5244 82.6098 88.5523V88.5802C82.6098 88.6081 82.5987 88.636 82.5819 88.6527C82.5652 88.6694 82.5373 88.6806 82.4983 88.6806ZM82.409 88.9483H82.5875V90.0972H82.409V88.9483Z" fill="#8690A1"/>
<path d="M82.9668 90.1028V88.9539H83.1453V89.138H83.1564C83.1843 89.071 83.2233 89.0208 83.2735 88.9818C83.3237 88.9428 83.3962 88.926 83.4799 88.926C83.597 88.926 83.6918 88.9651 83.7643 89.0431C83.8313 89.1212 83.8703 89.2272 83.8703 89.3666V90.1028H83.6918V89.3945C83.6918 89.1882 83.6026 89.0822 83.4297 89.0822C83.3962 89.0822 83.3572 89.0822 83.3237 89.0933C83.2903 89.1045 83.2624 89.1156 83.2345 89.1324C83.2066 89.1491 83.1843 89.1714 83.1732 89.1993C83.162 89.2272 83.1508 89.2607 83.1508 89.2941V90.0972H82.9724L82.9668 90.1028Z" fill="#8690A1"/>
<path d="M85.0694 90.1027C85.0024 90.1027 84.9522 90.086 84.9244 90.0469C84.8965 90.0135 84.8797 89.9688 84.8686 89.9131H84.8574C84.8296 89.9856 84.7905 90.0358 84.7347 90.0748C84.679 90.1139 84.6065 90.1306 84.5284 90.1306C84.4057 90.1306 84.3109 90.0971 84.2439 90.0358C84.177 89.9744 84.1436 89.8908 84.1436 89.7792C84.1436 89.6677 84.1826 89.5896 84.2607 89.5282C84.3388 89.4725 84.4615 89.439 84.6344 89.439H84.863V89.3275C84.863 89.2438 84.8407 89.1825 84.7961 89.1378C84.7515 89.0932 84.6845 89.0709 84.5897 89.0709C84.5172 89.0709 84.4615 89.0876 84.4168 89.1155C84.3722 89.1434 84.3332 89.188 84.2997 89.2382L84.1938 89.1378C84.2272 89.0765 84.2774 89.0207 84.3443 88.9761C84.4113 88.9315 84.5005 88.9092 84.6009 88.9092C84.7403 88.9092 84.8519 88.9426 84.9244 89.0096C85.0024 89.0765 85.0415 89.1713 85.0415 89.294V89.9242H85.1753V90.0804H85.075L85.0694 90.1027ZM84.5563 89.98C84.6009 89.98 84.6399 89.98 84.679 89.9633C84.718 89.9521 84.7459 89.9354 84.7738 89.9187C84.8017 89.9019 84.824 89.8796 84.8351 89.8517C84.8519 89.8238 84.8574 89.8015 84.8574 89.7681V89.5784H84.6232C84.5228 89.5784 84.4447 89.5952 84.4001 89.6231C84.3555 89.6509 84.3276 89.6956 84.3276 89.7513V89.796C84.3276 89.8517 84.3499 89.8963 84.389 89.9298C84.428 89.9633 84.4838 89.9744 84.5563 89.9744V89.98Z" fill="#8690A1"/>
<path d="M85.4258 90.1028V88.9539H85.6043V89.138H85.6154C85.6433 89.071 85.6823 89.0208 85.7325 88.9818C85.7827 88.9428 85.8552 88.926 85.9389 88.926C86.056 88.926 86.1508 88.9651 86.2233 89.0431C86.2902 89.1212 86.3293 89.2272 86.3293 89.3666V90.1028H86.1508V89.3945C86.1508 89.1882 86.0616 89.0822 85.8887 89.0822C85.8552 89.0822 85.8162 89.0822 85.7827 89.0933C85.7493 89.1045 85.7214 89.1156 85.6935 89.1324C85.6656 89.1491 85.6433 89.1714 85.6321 89.1993C85.621 89.2272 85.6098 89.2607 85.6098 89.2941V90.0972H85.4314L85.4258 90.1028Z" fill="#8690A1"/>
<path d="M87.1215 90.1306C87.0434 90.1306 86.9709 90.1139 86.904 90.086C86.8426 90.0581 86.7869 90.0191 86.7423 89.9633C86.6976 89.9131 86.6642 89.8462 86.6419 89.7737C86.6196 89.7012 86.6084 89.6175 86.6084 89.5227C86.6084 89.4279 86.6196 89.3498 86.6419 89.2717C86.6642 89.1992 86.6976 89.1323 86.7423 89.0821C86.7869 89.0319 86.8426 88.9873 86.904 88.9594C86.9653 88.9315 87.0378 88.9148 87.1215 88.9148C87.2386 88.9148 87.3279 88.9371 87.3948 88.9873C87.4617 89.0375 87.5175 89.1044 87.5509 89.1825L87.4004 89.2606C87.3781 89.1992 87.3446 89.1546 87.3 89.1212C87.2498 89.0877 87.194 89.071 87.1215 89.071C87.0657 89.071 87.0211 89.0821 86.9821 89.0988C86.943 89.1156 86.9096 89.1379 86.8817 89.1713C86.8538 89.1992 86.8371 89.2383 86.8203 89.2829C86.8092 89.3275 86.798 89.3721 86.798 89.4223V89.6175C86.798 89.7179 86.8259 89.8016 86.8817 89.8685C86.9375 89.9354 87.0155 89.9633 87.1215 89.9633C87.2665 89.9633 87.3725 89.8964 87.4338 89.7625L87.5621 89.8518C87.5231 89.9354 87.4673 90.0023 87.3948 90.0525C87.3223 90.1027 87.2275 90.125 87.1215 90.125V90.1306Z" fill="#8690A1"/>
<path d="M88.2374 90.1307C88.1593 90.1307 88.0868 90.1139 88.0255 90.086C87.9641 90.0582 87.9084 90.0191 87.8638 89.9633C87.8191 89.9132 87.7857 89.8462 87.7578 89.7737C87.7355 89.7012 87.7188 89.6176 87.7188 89.5227C87.7188 89.4279 87.7299 89.3499 87.7578 89.2774C87.7857 89.2048 87.8191 89.1379 87.8638 89.0877C87.9084 89.0375 87.9641 88.9929 88.0255 88.965C88.0868 88.9371 88.1593 88.9204 88.2374 88.9204C88.3155 88.9204 88.3824 88.9371 88.4438 88.965C88.5051 88.9929 88.5553 89.032 88.5999 89.0821C88.6446 89.1323 88.678 89.1881 88.7003 89.2606C88.7226 89.3275 88.7338 89.4056 88.7338 89.4837V89.5674H87.9084V89.6231C87.9084 89.6733 87.914 89.718 87.9307 89.7626C87.9474 89.8072 87.9697 89.8406 87.9976 89.8741C88.0255 89.9076 88.0645 89.9299 88.1036 89.9466C88.1482 89.9633 88.1928 89.9745 88.2486 89.9745C88.3211 89.9745 88.3824 89.9578 88.4382 89.9243C88.494 89.8908 88.533 89.8406 88.5665 89.7793L88.6948 89.8741C88.6557 89.9522 88.5999 90.0191 88.5219 90.0637C88.4438 90.1139 88.349 90.1362 88.243 90.1362L88.2374 90.1307ZM88.2374 89.0766C88.1872 89.0766 88.1426 89.0877 88.1036 89.1045C88.0645 89.1212 88.0311 89.1435 87.9976 89.177C87.9697 89.2104 87.9474 89.2439 87.9307 89.2885C87.914 89.3331 87.9084 89.3777 87.9084 89.4279V89.4447H88.5442V89.4224C88.5442 89.322 88.5163 89.2383 88.4605 89.177C88.4047 89.1156 88.3322 89.0821 88.2374 89.0821V89.0766Z" fill="#8690A1"/>
<path d="M81.1758 92.8134V91.2573H82.1239V91.4246H81.3598V91.9489H82.0793V92.1162H81.3598V92.6572H82.1239V92.8245H81.1758V92.8134Z" fill="#8690A1"/>
<path d="M82.3188 92.8135L82.7426 92.2334L82.3355 91.6646H82.5474L82.8375 92.094H82.843L83.1442 91.6646H83.345L82.9378 92.2223L83.3506 92.8135H83.1386L82.8375 92.3617H82.8319L82.5084 92.8135H82.3076H82.3188Z" fill="#8690A1"/>
<path d="M83.9926 92.8413C83.9145 92.8413 83.842 92.8246 83.7751 92.7967C83.7137 92.7688 83.658 92.7298 83.6133 92.674C83.5687 92.6238 83.5353 92.5569 83.513 92.4844C83.4906 92.4119 83.4795 92.3282 83.4795 92.2334C83.4795 92.1386 83.4906 92.0605 83.513 91.9824C83.5353 91.9099 83.5687 91.843 83.6133 91.7928C83.658 91.7426 83.7137 91.698 83.7751 91.6701C83.8364 91.6422 83.9089 91.6255 83.9926 91.6255C84.1097 91.6255 84.1989 91.6478 84.2659 91.698C84.3328 91.7482 84.3886 91.8151 84.422 91.8932L84.2715 91.9713C84.2491 91.9099 84.2157 91.8653 84.1711 91.8318C84.1209 91.7984 84.0651 91.7816 83.9926 91.7816C83.9368 91.7816 83.8922 91.7928 83.8532 91.8095C83.8141 91.8263 83.7807 91.8486 83.7528 91.882C83.7249 91.9099 83.7082 91.949 83.6914 91.9936C83.6803 92.0382 83.6691 92.0828 83.6691 92.133V92.3282C83.6691 92.4286 83.697 92.5123 83.7528 92.5792C83.8085 92.6461 83.8866 92.674 83.9926 92.674C84.1376 92.674 84.2436 92.6071 84.3049 92.4732L84.4332 92.5625C84.3942 92.6461 84.3384 92.713 84.2659 92.7632C84.1934 92.8134 84.0986 92.8357 83.9926 92.8357V92.8413Z" fill="#8690A1"/>
<path d="M84.6895 91.1626H84.8679V91.8486H84.8791C84.907 91.7816 84.946 91.7314 84.9962 91.6924C85.0464 91.6534 85.1189 91.6366 85.2026 91.6366C85.3197 91.6366 85.4145 91.6757 85.487 91.7537C85.5539 91.8318 85.593 91.9378 85.593 92.0772V92.8134H85.4145V92.1051C85.4145 91.8987 85.3253 91.7928 85.1524 91.7928C85.1189 91.7928 85.0799 91.7928 85.0464 91.8039C85.0129 91.8151 84.985 91.8262 84.9572 91.843C84.9293 91.8597 84.907 91.882 84.8958 91.9099C84.8847 91.9378 84.8735 91.9713 84.8735 92.0047V92.8078H84.695V91.157L84.6895 91.1626Z" fill="#8690A1"/>
<path d="M86.792 92.8134C86.7251 92.8134 86.6749 92.7967 86.647 92.7576C86.6191 92.7242 86.6024 92.6795 86.5912 92.6238H86.5801C86.5522 92.6963 86.5132 92.7465 86.4574 92.7855C86.4016 92.8246 86.3291 92.8413 86.251 92.8413C86.1283 92.8413 86.0335 92.8078 85.9666 92.7465C85.8997 92.6851 85.8662 92.6015 85.8662 92.4899C85.8662 92.3784 85.9053 92.3003 85.9833 92.2389C86.0614 92.1832 86.1841 92.1497 86.357 92.1497H86.5857V92.0382C86.5857 91.9545 86.5634 91.8932 86.5187 91.8485C86.4741 91.8039 86.4072 91.7816 86.3124 91.7816C86.2399 91.7816 86.1841 91.7983 86.1395 91.8262C86.0949 91.8541 86.0558 91.8987 86.0224 91.9489L85.9164 91.8485C85.9499 91.7872 86.0001 91.7314 86.067 91.6868C86.1339 91.6422 86.2232 91.6199 86.3235 91.6199C86.463 91.6199 86.5745 91.6533 86.647 91.7203C86.7251 91.7872 86.7641 91.882 86.7641 92.0047V92.6349H86.898V92.7911H86.7976L86.792 92.8134ZM86.2789 92.6907C86.3235 92.6907 86.3626 92.6907 86.4016 92.674C86.4407 92.6628 86.4685 92.6461 86.4964 92.6293C86.5243 92.6126 86.5466 92.5903 86.5578 92.5624C86.5745 92.5345 86.5801 92.5122 86.5801 92.4788V92.2891H86.3459C86.2455 92.2891 86.1674 92.3059 86.1228 92.3338C86.0781 92.3616 86.0503 92.4063 86.0503 92.462V92.5066C86.0503 92.5624 86.0726 92.607 86.1116 92.6405C86.1506 92.674 86.2064 92.6851 86.2789 92.6851V92.6907Z" fill="#8690A1"/>
<path d="M87.1484 92.8135V91.6646H87.3269V91.8487H87.3381C87.366 91.7817 87.405 91.7315 87.4552 91.6925C87.5054 91.6534 87.5779 91.6367 87.6615 91.6367C87.7787 91.6367 87.8735 91.6758 87.946 91.7538C88.0129 91.8319 88.0519 91.9379 88.0519 92.0773V92.8135H87.8735V92.1052C87.8735 91.8988 87.7842 91.7929 87.6113 91.7929C87.5779 91.7929 87.5388 91.7929 87.5054 91.804C87.4719 91.8152 87.444 91.8263 87.4161 91.8431C87.3883 91.8598 87.3659 91.8821 87.3548 91.91C87.3436 91.9379 87.3325 91.9713 87.3325 92.0048V92.8079H87.154L87.1484 92.8135Z" fill="#8690A1"/>
<path d="M89.3856 92.9418C89.3856 93.0589 89.3409 93.1482 89.2461 93.2039C89.1513 93.2597 89.0119 93.2876 88.8278 93.2876C88.6438 93.2876 88.5211 93.2653 88.4374 93.2151C88.3594 93.1649 88.3203 93.098 88.3203 93.0032C88.3203 92.9418 88.337 92.8916 88.3705 92.8581C88.404 92.8247 88.4486 92.7968 88.5044 92.7801V92.7578C88.4374 92.7243 88.404 92.6741 88.404 92.596C88.404 92.5402 88.4207 92.4956 88.4597 92.4622C88.4988 92.4287 88.5434 92.412 88.6047 92.3952V92.3841C88.5378 92.3506 88.482 92.306 88.443 92.2447C88.404 92.1833 88.3872 92.1108 88.3872 92.0327C88.3872 91.977 88.3984 91.9212 88.4207 91.871C88.443 91.8208 88.4709 91.7817 88.5099 91.7427C88.549 91.7092 88.5936 91.6814 88.6438 91.659C88.694 91.6423 88.7553 91.6312 88.8223 91.6312C88.9059 91.6312 88.9784 91.6479 89.0398 91.6758V91.6535C89.0398 91.6089 89.0509 91.5698 89.0732 91.5419C89.0955 91.514 89.129 91.4973 89.1736 91.4973H89.3465V91.6535H89.129V91.726C89.168 91.7594 89.2015 91.8041 89.2238 91.8543C89.2461 91.9044 89.2573 91.9602 89.2573 92.0216C89.2573 92.0773 89.2461 92.1331 89.2238 92.1833C89.2015 92.2335 89.1736 92.2725 89.1346 92.3116C89.0955 92.345 89.0509 92.3729 88.9952 92.3952C88.9394 92.4176 88.8836 92.4231 88.8167 92.4231C88.7776 92.4231 88.7442 92.4231 88.7051 92.412C88.6661 92.4231 88.6326 92.4399 88.5992 92.4566C88.5657 92.4733 88.5546 92.5068 88.5546 92.5402C88.5546 92.5737 88.5713 92.596 88.6047 92.6072C88.6382 92.6183 88.6773 92.6239 88.733 92.6239H88.9784C89.1234 92.6239 89.2238 92.6518 89.2907 92.7076C89.3577 92.7633 89.3856 92.8358 89.3856 92.9307V92.9418ZM89.2182 92.953C89.2182 92.9083 89.2015 92.8693 89.168 92.8414C89.1346 92.8135 89.0732 92.8024 88.984 92.8024H88.5992C88.5267 92.8358 88.4932 92.886 88.4932 92.9585C88.4932 93.0087 88.5099 93.0534 88.549 93.0868C88.588 93.1203 88.6494 93.1426 88.7442 93.1426H88.9115C89.0119 93.1426 89.09 93.1259 89.1457 93.098C89.2015 93.0645 89.2294 93.0199 89.2294 92.9585L89.2182 92.953ZM88.8167 92.2893C88.8948 92.2893 88.9505 92.2725 88.9952 92.2335C89.0398 92.1945 89.0621 92.1387 89.0621 92.0662V92.0048C89.0621 91.9268 89.0398 91.871 88.9952 91.8375C88.9505 91.7985 88.8892 91.7817 88.8167 91.7817C88.7442 91.7817 88.6828 91.7985 88.6382 91.8375C88.5936 91.8766 88.5713 91.9323 88.5713 92.0048V92.0662C88.5713 92.1443 88.5936 92.2 88.6382 92.2335C88.6828 92.2725 88.7442 92.2893 88.8167 92.2893Z" fill="#8690A1"/>
<path d="M90.0157 92.8414C89.9377 92.8414 89.8652 92.8246 89.8038 92.7967C89.7425 92.7689 89.6867 92.7298 89.6421 92.674C89.5975 92.6238 89.564 92.5569 89.5361 92.4844C89.5138 92.4119 89.4971 92.3283 89.4971 92.2334C89.4971 92.1386 89.5082 92.0605 89.5361 91.988C89.564 91.9155 89.5975 91.8486 89.6421 91.7984C89.6867 91.7482 89.7425 91.7036 89.8038 91.6757C89.8652 91.6478 89.9377 91.6311 90.0157 91.6311C90.0938 91.6311 90.1608 91.6478 90.2221 91.6757C90.2835 91.7036 90.3336 91.7426 90.3783 91.7928C90.4229 91.843 90.4563 91.8988 90.4787 91.9713C90.501 92.0382 90.5121 92.1163 90.5121 92.1944V92.2781H89.6867V92.3338C89.6867 92.384 89.6923 92.4286 89.709 92.4733C89.7257 92.5179 89.748 92.5513 89.7759 92.5848C89.8038 92.6183 89.8429 92.6406 89.8819 92.6573C89.9265 92.674 89.9711 92.6852 90.0269 92.6852C90.0994 92.6852 90.1608 92.6685 90.2165 92.635C90.2723 92.6015 90.3113 92.5513 90.3448 92.49L90.4731 92.5848C90.434 92.6629 90.3783 92.7298 90.3002 92.7744C90.2221 92.8246 90.1273 92.8469 90.0213 92.8469L90.0157 92.8414ZM90.0157 91.7873C89.9656 91.7873 89.9209 91.7984 89.8819 91.8152C89.8429 91.8319 89.8094 91.8542 89.7759 91.8877C89.748 91.9211 89.7257 91.9546 89.709 91.9992C89.6923 92.0438 89.6867 92.0884 89.6867 92.1386V92.1554H90.3225V92.1331C90.3225 92.0327 90.2946 91.949 90.2388 91.8877C90.1831 91.8263 90.1106 91.7928 90.0157 91.7928V91.7873Z" fill="#8690A1"/>
<path d="M78.2529 160.367C78.119 160.367 78.0019 160.345 77.8903 160.306C77.7844 160.261 77.6951 160.2 77.6171 160.116C77.5446 160.033 77.4832 159.927 77.4442 159.804C77.4051 159.681 77.3828 159.531 77.3828 159.369C77.3828 159.207 77.4051 159.057 77.4442 158.928C77.4832 158.8 77.5446 158.694 77.6171 158.605C77.6896 158.516 77.7844 158.454 77.8903 158.404C77.9963 158.359 78.119 158.337 78.2529 158.337C78.4369 158.337 78.5819 158.376 78.7046 158.449C78.8273 158.521 78.9165 158.638 78.989 158.8L78.621 158.99C78.5931 158.906 78.554 158.839 78.4983 158.789C78.4425 158.739 78.3588 158.716 78.2529 158.716C78.1246 158.716 78.0242 158.755 77.9517 158.839C77.8736 158.923 77.8401 159.04 77.8401 159.196V159.508C77.8401 159.665 77.8792 159.782 77.9517 159.865C78.0298 159.949 78.1302 159.988 78.2529 159.988C78.3588 159.988 78.4425 159.96 78.5038 159.904C78.5652 159.849 78.6154 159.776 78.6433 159.698L78.9946 159.899C78.9221 160.049 78.8273 160.166 78.7046 160.245C78.5875 160.328 78.4369 160.367 78.2529 160.367Z" fill="white"/>
<path d="M79.7195 160.334H79.29V158.371H80.2214C80.3107 158.371 80.3943 158.387 80.4668 158.415C80.5393 158.443 80.6007 158.488 80.6565 158.543C80.7066 158.599 80.7457 158.666 80.7736 158.744C80.8015 158.822 80.8182 158.906 80.8182 159.001C80.8182 159.135 80.7903 159.252 80.729 159.352C80.6676 159.453 80.5784 159.525 80.4612 159.57L80.8461 160.339H80.372L80.0262 159.62H79.7195V160.339V160.334ZM80.1712 159.252C80.2326 159.252 80.2884 159.235 80.3218 159.202C80.3609 159.168 80.3776 159.118 80.3776 159.057V158.934C80.3776 158.873 80.3609 158.822 80.3218 158.789C80.2828 158.755 80.2326 158.739 80.1712 158.739H79.7195V159.252H80.1712Z" fill="white"/>
<path d="M81.1865 160.334V158.371H82.5251V158.75H81.616V159.151H82.3968V159.531H81.616V159.955H82.5251V160.334H81.1865Z" fill="white"/>
<path d="M84.1034 160.334L83.964 159.865H83.3059L83.1665 160.334H82.7314L83.3784 158.371H83.9082L84.5496 160.334H84.1034ZM83.6405 158.755H83.6294L83.4119 159.503H83.8636L83.6461 158.755H83.6405Z" fill="white"/>
<path d="M85.4583 158.75V160.334H85.0289V158.75H84.499V158.371H85.9881V158.75H85.4583Z" fill="white"/>
<path d="M86.2842 160.334V158.371H87.6227V158.75H86.7136V159.151H87.4944V159.531H86.7136V159.955H87.6227V160.334H86.2842Z" fill="white"/>
<path d="M88.9667 160.334L88.5205 158.371H88.9444L89.1284 159.313L89.2344 159.86H89.2455L89.3682 159.313L89.5858 158.371H90.0542L90.2717 159.313L90.3944 159.86H90.4056L90.5116 159.313L90.7012 158.371H91.1083L90.651 160.334H90.1658L89.9204 159.269L89.8256 158.839H89.8144L89.714 159.269L89.4686 160.334H88.9778H88.9667Z" fill="white"/>
<path d="M92.5253 160.334L92.3859 159.865H91.7278L91.5883 160.334H91.1533L91.8003 158.371H92.3301L92.9715 160.334H92.5253ZM92.0624 158.755H92.0512L91.8337 159.503H92.2855L92.068 158.755H92.0624Z" fill="white"/>
<path d="M93.2441 160.334V158.371H93.6736V159.955H94.4209V160.334H93.2441Z" fill="white"/>
<path d="M94.7334 160.334V158.371H95.1628V159.955H95.9102V160.334H94.7334Z" fill="white"/>
<path d="M96.2285 160.334V158.371H97.567V158.75H96.658V159.151H97.4388V159.531H96.658V159.955H97.567V160.334H96.2285Z" fill="white"/>
<path d="M98.7542 158.75V160.334H98.3248V158.75H97.7949V158.371H99.284V158.75H98.7542Z" fill="white"/>
<g filter="url(#filter1_d_3509_4739)">
<path d="M53.6325 149.038C53.9507 149.038 54.2856 148.966 54.6261 148.815C54.9722 148.67 55.2625 148.519 55.5081 148.374C59.4377 145.99 62.7254 143.936 65.3657 142.2C68.0059 140.47 70.1103 138.874 71.6844 137.411C73.2585 135.949 74.3748 134.408 75.0391 132.789C75.7033 131.17 76.0327 129.25 76.0327 127.04V105.343C76.0327 103.747 75.7703 102.586 75.24 101.86C74.7098 101.134 73.6883 100.492 72.1644 99.9231C70.8136 99.4096 69.4572 98.8793 68.0952 98.3378C66.7332 97.7964 65.3545 97.2549 63.9702 96.7191C62.5803 96.1776 61.196 95.6529 59.8061 95.1338C58.4162 94.6203 57.0598 94.1291 55.7369 93.6602C55.3685 93.5374 55.0168 93.4314 54.6875 93.3476C54.3582 93.2639 54.0065 93.2192 53.6381 93.2192C53.292 93.2192 52.9571 93.2639 52.6222 93.3476C52.2929 93.4314 51.9412 93.5374 51.5728 93.6602C50.222 94.1514 48.86 94.6538 47.4813 95.1729C46.1026 95.692 44.7238 96.2111 43.334 96.7414C41.9441 97.2717 40.5598 97.802 39.1699 98.3434C37.78 98.8849 36.4236 99.4096 35.1007 99.9287C33.5768 100.47 32.5497 101.106 32.0251 101.843C31.4948 102.58 31.2324 103.747 31.2324 105.343V127.045C31.2324 129.256 31.5785 131.165 32.2651 132.772C32.9516 134.38 34.0848 135.904 35.6533 137.338C37.2274 138.773 39.3262 140.358 41.9552 142.089C44.5843 143.819 47.8497 145.912 51.757 148.368C52.0026 148.513 52.2985 148.664 52.639 148.809C52.985 148.954 53.3144 149.033 53.6325 149.033V149.038Z" fill="url(#paint0_linear_3509_4739)"/>
<path d="M53.6329 151.271C53.0077 151.271 52.3769 151.137 51.7574 150.869C51.3164 150.679 50.9424 150.49 50.6075 150.289C46.6667 147.81 43.3566 145.689 40.7275 143.959C38.0148 142.173 35.7987 140.498 34.1465 138.991C32.3436 137.344 31.0206 135.547 30.2113 133.655C29.4075 131.773 29 129.552 29 127.046V105.343C29 103.25 29.3963 101.676 30.2113 100.543C31.0151 99.4208 32.3603 98.5389 34.3251 97.8356L38.3664 96.2615C39.7619 95.72 41.1518 95.1842 42.5472 94.6539C43.9371 94.1236 45.3214 93.5989 46.7002 93.0854C48.0845 92.5663 49.452 92.0639 50.8084 91.5671L50.8643 91.5448C51.2773 91.4052 51.6792 91.288 52.0588 91.1875C53.1138 90.914 54.2413 90.9252 55.2405 91.1875C55.62 91.288 56.0219 91.4052 56.435 91.5448C57.8137 92.0304 59.198 92.5328 60.5767 93.0463C61.9722 93.5654 63.3733 94.0957 64.7743 94.6427C66.1642 95.1842 67.5485 95.7256 68.9161 96.2671C70.2725 96.8029 71.6177 97.3276 72.963 97.8412C74.9055 98.5612 76.2451 99.4487 77.0489 100.548C77.8694 101.676 78.2713 103.244 78.2713 105.343V127.046C78.2713 129.535 77.8806 131.757 77.1103 133.638C76.3288 135.552 75.0171 137.372 73.2141 139.052C71.5563 140.593 69.3347 142.279 66.5996 144.076C63.9482 145.812 60.6102 147.905 56.675 150.289C56.3345 150.495 55.9549 150.685 55.514 150.875C54.8944 151.143 54.2636 151.277 53.6385 151.277L53.6329 151.271ZM52.3044 95.7703C50.9703 96.2559 49.6251 96.7527 48.2631 97.2606C46.89 97.7742 45.5112 98.2933 44.1269 98.8236C42.7426 99.3483 41.3639 99.8841 39.9796 100.42L35.8434 102.028C34.2972 102.575 33.9009 103.049 33.8339 103.138C33.7725 103.228 33.4599 103.741 33.4599 105.338V127.04C33.4599 128.938 33.7446 130.568 34.314 131.891C34.8721 133.197 35.8266 134.475 37.1551 135.686C38.6343 137.037 40.6606 138.567 43.178 140.224C45.7792 141.938 49.0669 144.042 52.9407 146.482C53.0579 146.554 53.2645 146.655 53.5157 146.761C53.5771 146.789 53.6161 146.794 53.6329 146.8C53.6496 146.8 53.6887 146.789 53.7501 146.761C54.0013 146.655 54.2078 146.549 54.3641 146.459C58.2435 144.109 61.5368 142.044 64.1436 140.336C66.6666 138.678 68.6928 137.149 70.1664 135.776C71.4949 134.542 72.4383 133.253 72.9741 131.941C73.5211 130.596 73.8002 128.949 73.8002 127.04V105.343C73.8002 103.758 73.4988 103.261 73.4374 103.177C73.3704 103.088 72.963 102.608 71.3889 102.022C70.0101 101.497 68.6426 100.961 67.2694 100.42C65.913 99.8841 64.5399 99.3427 63.1556 98.8012C61.7768 98.2654 60.4037 97.7407 59.025 97.2271C57.6686 96.7248 56.3122 96.2336 54.9893 95.7647C54.7102 95.6698 54.4032 95.5805 54.1185 95.5079C53.845 95.4354 53.4989 95.4242 53.1752 95.5079C52.9016 95.5805 52.6058 95.6642 52.2988 95.7703H52.3044Z" fill="url(#paint1_linear_3509_4739)"/>
<g style="mix-blend-mode:multiply" filter="url(#filter2_i_3509_4739)">
<path d="M52.3044 95.7703C50.9703 96.2559 49.6251 96.7527 48.2631 97.2606C46.89 97.7741 45.5113 98.2933 44.127 98.8235C42.7426 99.3482 41.3639 99.8841 39.9796 100.42L35.8434 102.028C34.2972 102.575 33.9009 103.049 33.8339 103.138C33.7725 103.228 33.46 103.741 33.46 105.338V127.04C33.46 128.938 33.7446 130.568 34.314 131.891C34.8722 133.197 35.8267 134.475 37.1552 135.686C38.6344 137.037 40.6606 138.567 43.178 140.224C45.7792 141.938 49.0669 144.042 52.9408 146.482C53.058 146.554 53.2645 146.655 53.5157 146.761C53.5771 146.789 53.6162 146.794 53.6329 146.8C53.6497 146.8 53.6887 146.789 53.7501 146.761C54.0013 146.655 54.2078 146.549 54.3641 146.459C58.2435 144.109 61.5369 142.044 64.1436 140.336C66.6666 138.678 68.6928 137.149 70.1665 135.776C71.4949 134.542 72.4383 133.253 72.9742 131.941C73.5212 130.596 73.8003 128.949 73.8003 127.04V105.343C73.8003 103.758 73.4988 103.261 73.4374 103.177C73.3705 103.088 72.963 102.608 71.3889 102.022C70.0102 101.497 68.6426 100.961 67.2695 100.42C65.9131 99.8841 64.5399 99.3427 63.1556 98.8012C61.7769 98.2654 60.4037 97.7407 59.025 97.2271C57.6686 96.7248 56.3122 96.2335 54.9893 95.7647C54.7102 95.6698 54.4032 95.5805 54.1185 95.5079C53.845 95.4353 53.4989 95.4242 53.1752 95.5079C52.9017 95.5805 52.6058 95.6642 52.2988 95.7703H52.3044Z" fill="white" style="mix-blend-mode:multiply"/>
</g>
<g filter="url(#filter3_d_3509_4739)">
<path d="M51.2664 122.491L44.5625 115.787L39.9072 120.442L51.2664 131.807L67.3645 115.815L62.7037 111.154L51.2664 122.491Z" fill="#F5516C"/>
</g>
</g>
<path d="M189.387 80.7505C183.132 80.7505 178.764 83.2928 178.764 86.9387C178.764 90.5846 183.034 93.1114 189.387 93.1114H252.939L252.965 87.408C252.976 85.634 252.29 83.9632 251.037 82.7049C249.784 81.4467 248.118 80.7556 246.344 80.7556H189.387V80.7505Z" fill="#072440"/>
<path d="M260.165 162.987H191.259C186.654 162.987 182.755 161.878 179.981 159.784C177.449 157.876 176 155.2 176 152.446V87.1915C176 87.109 176 87.0213 176 86.9388C176 81.6685 181.507 77.9866 189.387 77.9866H246.344C248.861 77.9866 251.223 78.9664 252.997 80.7506C254.771 82.5349 255.74 84.9019 255.73 87.4184L255.704 93.1115H260.165C265.342 93.1115 269.55 97.3247 269.55 102.497V153.596C269.55 158.773 265.337 162.981 260.165 162.981V162.987ZM189.387 80.7506C183.132 80.7506 178.764 83.2929 178.764 86.9388C178.764 90.5847 183.034 93.1115 189.387 93.1115H252.94L252.966 87.4081C252.976 85.6341 252.29 83.9633 251.037 82.7051C249.784 81.4468 248.118 80.7558 246.344 80.7558H189.387V80.7506Z" fill="url(#paint2_linear_3509_4739)"/>
<path d="M270.68 138.899H252.961C246.963 138.899 242.101 134.036 242.101 128.039C242.101 122.041 246.963 117.178 252.961 117.178H270.68" fill="#C54863"/>
<path d="M270.68 138.899H252.961C246.963 138.899 242.101 134.036 242.101 128.039C242.101 122.041 246.963 117.178 252.961 117.178H270.68" stroke="#AD435F" stroke-miterlimit="10"/>
<path d="M259.046 125.234C259.046 123.527 257.658 122.139 255.952 122.139C254.245 122.139 252.857 123.527 252.857 125.234C252.857 126.466 253.579 127.523 254.616 128.023V133.051C254.575 133.526 254.879 133.949 255.271 133.949H256.627C257.019 133.949 257.323 133.531 257.277 133.051V128.023C258.319 127.523 259.04 126.466 259.04 125.234H259.046Z" fill="#072440"/>
</g>
<defs>
<filter id="filter0_d_3509_4739" x="53" y="52.9866" width="72.2676" height="139" filterUnits="userSpaceOnUse" color-interpolation-filters="sRGB">
<feFlood flood-opacity="0" result="BackgroundImageFix"/>
<feColorMatrix in="SourceAlpha" type="matrix" values="0 0 0 0 0 0 0 0 0 0 0 0 0 0 0 0 0 0 127 0" result="hardAlpha"/>
<feOffset dx="2" dy="3"/>
<feColorMatrix type="matrix" values="0 0 0 0 0.0426562 0 0 0 0 0.256037 0 0 0 0 0.4875 0 0 0 1 0"/>
<feBlend mode="normal" in2="BackgroundImageFix" result="effect1_dropShadow_3509_4739"/>
<feBlend mode="normal" in="SourceGraphic" in2="effect1_dropShadow_3509_4739" result="shape"/>
</filter>
<filter id="filter1_d_3509_4739" x="29" y="90.9866" width="50.2715" height="62.29" filterUnits="userSpaceOnUse" color-interpolation-filters="sRGB">
<feFlood flood-opacity="0" result="BackgroundImageFix"/>
<feColorMatrix in="SourceAlpha" type="matrix" values="0 0 0 0 0 0 0 0 0 0 0 0 0 0 0 0 0 0 127 0" result="hardAlpha"/>
<feOffset dx="1" dy="2"/>
<feComposite in2="hardAlpha" operator="out"/>
<feColorMatrix type="matrix" values="0 0 0 0 0.0431373 0 0 0 0 0.254902 0 0 0 0 0.486275 0 0 0 1 0"/>
<feBlend mode="normal" in2="BackgroundImageFix" result="effect1_dropShadow_3509_4739"/>
<feBlend mode="normal" in="SourceGraphic" in2="effect1_dropShadow_3509_4739" result="shape"/>
</filter>
<filter id="filter2_i_3509_4739" x="33.46" y="95.4492" width="40.3398" height="51.3506" filterUnits="userSpaceOnUse" color-interpolation-filters="sRGB">
<feFlood flood-opacity="0" result="BackgroundImageFix"/>
<feBlend mode="normal" in="SourceGraphic" in2="BackgroundImageFix" result="shape"/>
<feColorMatrix in="SourceAlpha" type="matrix" values="0 0 0 0 0 0 0 0 0 0 0 0 0 0 0 0 0 0 127 0" result="hardAlpha"/>
<feOffset/>
<feGaussianBlur stdDeviation="1"/>
<feComposite in2="hardAlpha" operator="arithmetic" k2="-1" k3="1"/>
<feColorMatrix type="matrix" values="0 0 0 0 0 0 0 0 0 0 0 0 0 0 0 0 0 0 0.5 0"/>
<feBlend mode="normal" in2="shape" result="effect1_innerShadow_3509_4739"/>
</filter>
<filter id="filter3_d_3509_4739" x="39.9072" y="111.154" width="28.457" height="21.6531" filterUnits="userSpaceOnUse" color-interpolation-filters="sRGB">
<feFlood flood-opacity="0" result="BackgroundImageFix"/>
<feColorMatrix in="SourceAlpha" type="matrix" values="0 0 0 0 0 0 0 0 0 0 0 0 0 0 0 0 0 0 127 0" result="hardAlpha"/>
<feOffset dx="1" dy="1"/>
<feComposite in2="hardAlpha" operator="out"/>
<feColorMatrix type="matrix" values="0 0 0 0 0.772549 0 0 0 0 0.282353 0 0 0 0 0.388235 0 0 0 1 0"/>
<feBlend mode="multiply" in2="BackgroundImageFix" result="effect1_dropShadow_3509_4739"/>
<feBlend mode="normal" in="SourceGraphic" in2="effect1_dropShadow_3509_4739" result="shape"/>
</filter>
<linearGradient id="paint0_linear_3509_4739" x1="33.4652" y1="93.2192" x2="75.8875" y2="93.2192" gradientUnits="userSpaceOnUse">
<stop offset="0.369792" stop-color="white"/>
<stop offset="0.802083" stop-color="#CACACA"/>
</linearGradient>
<linearGradient id="paint1_linear_3509_4739" x1="29" y1="150.987" x2="78" y2="150.987" gradientUnits="userSpaceOnUse">
<stop stop-color="#007AFE"/>
<stop offset="1" stop-color="#156DCC"/>
</linearGradient>
<linearGradient id="paint2_linear_3509_4739" x1="176" y1="120.484" x2="269.55" y2="120.484" gradientUnits="userSpaceOnUse">
<stop stop-color="#CC435A"/>
<stop offset="0.22" stop-color="#F5516C"/>
<stop offset="0.93" stop-color="#F5516C"/>
</linearGradient>
<clipPath id="clip0_3509_4739">
<rect width="311.464" height="240" fill="white" transform="translate(0 0.986572)"/>
</clipPath>
</defs>
</svg>
