<svg width="326" height="241" viewBox="0 0 326 241" fill="none" xmlns="http://www.w3.org/2000/svg">
<g clip-path="url(#clip0_3536_7767)">
<path d="M205.417 0.986572C170.472 0.986572 139.027 15.928 117.092 39.7605C148.961 52.274 171.527 83.3122 171.527 119.619C171.527 155.926 148.096 188.148 115.267 200.175C137.257 225.191 169.49 240.987 205.417 240.987C271.691 240.987 325.417 187.26 325.417 120.987C325.417 54.7131 271.696 0.986572 205.417 0.986572Z" fill="#1A2843"/>
<path d="M117.098 39.7606C107.392 35.9485 96.826 33.8555 85.7693 33.8555C38.4 33.8555 0 72.2555 0 119.625C0 166.994 38.4 205.389 85.7637 205.389C96.1284 205.389 106.069 203.547 115.267 200.181C148.097 188.153 171.527 156.624 171.527 119.625C171.527 82.6257 148.962 52.2797 117.092 39.7662L117.098 39.7606Z" fill="#362D48"/>
<g filter="url(#filter0_d_3536_7767)">
<path d="M49 73.7009H45.4502V90.0377H49V73.7009Z" fill="#0961C3"/>
<path d="M55.5527 73.7009H52.0029V90.0377H55.5527V73.7009Z" fill="#0961C3"/>
<path d="M42.4472 73.7009H38.8975V90.0377H42.4472V73.7009Z" fill="#0961C3"/>
<path d="M68.6523 73.7009H65.1025V90.0377H68.6523V73.7009Z" fill="#0961C3"/>
<path d="M62.1045 73.7009H58.5547V90.0377H62.1045V73.7009Z" fill="#0961C3"/>
<path d="M70.3875 70.9495H37.167V72.6127H70.3875V70.9495Z" fill="#0961C3"/>
<path d="M53.7771 58.4136L34.2422 69.8554H73.312L53.7771 58.4136ZM53.7771 60.3782L67.1222 68.1922H40.4375L53.7827 60.3782H53.7771Z" fill="#0961C3"/>
<path d="M53.7772 91.1262H37.167V92.7895H53.7772H70.3875V91.1262H53.7772Z" fill="#0961C3"/>
<path d="M72.5861 93.8667H34.9619V95.53H72.5861V93.8667Z" fill="#0961C3"/>
</g>
<path d="M261.934 139.355L231.817 119.837C231.923 119.508 231.985 119.162 231.985 118.799C231.985 118.436 231.918 118.062 231.801 117.722L261.946 97.6341C262.331 97.3774 262.437 96.8583 262.18 96.4732C261.923 96.0881 261.404 95.982 261.019 96.2387L230.874 116.326C230.489 115.986 230.026 115.729 229.512 115.595V64.0118C229.512 63.5485 229.138 63.1746 228.675 63.1746C228.212 63.1746 227.838 63.5485 227.838 64.0118V115.601C226.682 115.902 225.778 116.806 225.477 117.962H194.986C194.522 117.962 194.148 118.335 194.148 118.799C194.148 119.262 194.522 119.636 194.986 119.636H225.477C225.778 120.791 226.682 121.695 227.838 121.997V175.986C227.838 176.449 228.212 176.823 228.675 176.823C229.138 176.823 229.512 176.449 229.512 175.986V121.997C230.037 121.857 230.511 121.595 230.902 121.238L261.025 140.756C261.164 140.845 261.321 140.89 261.477 140.89C261.75 140.89 262.018 140.756 262.18 140.51C262.431 140.125 262.32 139.606 261.934 139.355Z" fill="#6B3753"/>
<path d="M105.416 136.704L105.003 137.976L110.126 139.612L80.1709 153.722L80.8797 155.24L110.841 141.124L108.837 146.114L110.082 146.611L113.079 139.149L105.416 136.704Z" fill="#F5516C"/>
<path d="M84.7643 92.4825L82.7606 87.4927L110.126 100.386L105.002 102.015L105.41 103.294L113.079 100.849L110.082 93.3811L108.837 93.8834L110.841 98.8676L83.4806 85.9746L88.5987 84.3448L88.1913 83.0667L80.5225 85.5113L83.5197 92.9792L84.7643 92.4825Z" fill="#F5516C"/>
<g filter="url(#filter1_d_3536_7767)">
<path d="M159.053 161.859C136.03 161.859 117.192 143.022 117.192 119.999C117.192 96.9754 136.03 78.1382 159.053 78.1382C182.076 78.1382 200.913 96.9754 200.913 119.999C200.913 143.022 182.076 161.859 159.053 161.859Z" fill="#F5516C"/>
<path d="M164.473 96.7466H147.494V106.196H161.749C169.278 106.196 175.524 112.441 175.524 119.965C175.524 127.489 169.278 133.74 161.749 133.74H147.494V143.189H163.987C176.958 143.189 187.368 132.78 187.368 119.809C187.368 106.838 177.12 96.7466 164.467 96.7466H164.473Z" fill="#072440"/>
<path d="M152.757 107.965H151.635C155.318 110.527 157.88 114.853 157.88 119.814C157.88 124.776 155.475 129.102 151.635 131.664H152.757C159.32 131.664 164.606 126.378 164.606 119.814C164.606 113.251 159.32 107.965 152.757 107.965Z" fill="#072440"/>
<path d="M156.295 119.809C156.295 126.858 150.53 132.618 143.486 132.618C136.442 132.618 130.677 126.853 130.677 119.809C130.677 112.765 136.442 107 143.486 107C150.53 107 156.295 112.765 156.295 119.809Z" fill="#072440"/>
</g>
<g filter="url(#filter2_d_3536_7767)">
<path d="M237.086 30.367C229.088 25.7624 218.785 28.4638 214.175 36.4675C209.564 44.46 212.277 54.7577 220.275 59.368C228.273 63.9726 238.577 61.2656 243.187 53.2675C247.797 45.2693 245.017 34.9773 237.086 30.367Z" fill="#F5516C"/>
</g>
<g filter="url(#filter3_d_3536_7767)">
<path d="M53.7771 179.625C43.0217 179.625 34.2422 170.845 34.2422 160.09C34.2422 149.334 43.0217 140.555 53.7771 140.555C64.5324 140.555 73.312 149.334 73.312 160.09C73.312 170.845 64.5324 179.625 53.7771 179.625Z" fill="#FF931E"/>
<path d="M58.0467 152.421L58.9174 148.944L56.7798 148.391L55.9091 151.874C55.3565 151.718 54.804 151.634 54.1677 151.478L55.0384 148.001L52.9007 147.448L52.03 151.009C51.5556 150.931 51.0812 150.769 50.6849 150.691L47.7602 149.982L47.2077 152.276L48.7872 152.672C49.6579 152.912 49.8142 153.465 49.8142 153.939L47.4421 163.589C47.2858 163.829 47.0458 164.22 46.4151 164.064L44.8356 163.668L43.7305 166.118L46.4988 166.827L48.0002 167.223L47.1295 170.784L49.2672 171.336L50.1379 167.775C50.6905 167.932 51.243 168.094 51.8793 168.25L51.0867 171.727L53.2244 172.28L54.0951 168.719C57.7342 169.433 60.5026 169.115 61.6858 165.794C62.6347 163.104 61.6077 161.602 59.71 160.575C61.1333 160.257 62.1602 159.308 62.4784 157.411C62.7965 154.721 60.8151 153.297 58.0467 152.427V152.421ZM57.4942 164.203C56.8635 166.894 52.3537 165.392 50.8523 165.074L52.0412 160.33C53.4644 160.726 58.1305 161.435 57.4998 164.203H57.4942ZM58.1249 157.243C57.4942 159.694 53.777 158.432 52.5881 158.114L53.6933 153.844C54.8821 154.162 58.7556 154.715 58.1249 157.243Z" fill="white"/>
</g>
<path d="M228.68 35.0162V43.2934C228.223 42.8358 227.826 42.4395 227.302 41.9148C227.235 41.1279 227.106 38.8953 227.106 38.8953L228.418 34.9548C227.631 34.9548 226.839 35.0888 226.119 35.2841L225.46 37.1874L223.618 36.2665C222.96 36.6627 222.306 37.1204 221.709 37.712L224.997 39.353L225.131 41.3232L223.16 41.1893L221.52 37.9018C220.995 38.4934 220.47 39.0851 220.074 39.8051L220.995 41.6469L219.025 42.3055C218.829 43.0311 218.695 43.8181 218.695 44.672L222.641 43.4218L225.795 43.5558L227.112 44.8674L225.795 46.179L222.641 46.313L218.695 45.0627C218.695 45.8497 218.829 46.6423 219.025 47.4293L220.933 48.0879L220.013 49.8627C220.409 50.5213 220.866 51.1744 221.458 51.7046L223.099 48.4227L225.069 48.2888L224.935 50.259L221.648 51.9C222.24 52.4246 222.831 52.9492 223.557 53.3455L225.332 52.4916L225.99 54.3948C226.716 54.5902 227.503 54.7241 228.29 54.7241L227.04 50.8506C227.04 50.8506 227.173 48.6181 227.235 47.8255C227.693 47.3679 228.089 46.9716 228.613 46.4469V54.7241C234.066 54.7241 238.47 50.3204 238.47 44.8674C238.537 39.4144 234.133 35.0106 228.675 35.0106L228.68 35.0162ZM230.913 52.2292V37.5167C233.28 38.0413 236.305 40.6702 236.433 44.6106C236.567 48.9474 233.28 51.7046 230.913 52.2292Z" fill="white"/>
<g filter="url(#filter4_d_3536_7767)">
<path d="M220.303 203.178C212.282 198.579 209.57 188.315 214.169 180.294C218.768 172.274 229.032 169.561 237.053 174.16C245.073 178.76 247.786 189.024 243.187 197.044C238.588 205.065 228.206 207.777 220.303 203.178Z" fill="#F5516C"/>
<path d="M228.68 200.348L231.393 185.016C233.988 185.016 234.814 185.251 234.932 186.434C234.932 186.434 236.701 185.725 237.527 184.43C234.106 182.895 230.684 182.778 230.684 182.778L228.68 185.256L226.677 182.778C226.677 182.778 223.255 182.895 219.834 184.43C220.66 185.725 222.429 186.434 222.429 186.434C222.547 185.256 223.373 185.016 225.968 185.016L228.68 200.348Z" fill="white"/>
<path d="M228.68 182.186C231.51 182.186 234.58 182.661 237.879 184.073C238.347 183.247 238.47 182.895 238.47 182.895C234.932 181.478 231.627 181.009 228.68 181.009C225.733 181.009 222.546 181.483 218.891 182.895C218.891 182.895 219.008 183.37 219.482 184.073C222.669 182.538 225.851 182.186 228.68 182.186Z" fill="white"/>
</g>
<g filter="url(#filter5_d_3536_7767)">
<path d="M274.794 108.417C265.574 108.417 258.05 100.893 258.05 91.6729C258.05 82.4524 265.574 74.9287 274.794 74.9287C284.014 74.9287 291.538 82.4524 291.538 91.6729C291.538 100.893 284.014 108.417 274.794 108.417Z" fill="#F5516C"/>
<path d="M278.456 85.0979L279.204 82.1175L277.373 81.643L276.625 84.6291C276.151 84.4951 275.676 84.4282 275.135 84.2886L275.883 81.3082L274.052 80.8337L273.304 83.8868C272.897 83.8198 272.489 83.6858 272.154 83.6133L269.648 83.0049L269.174 84.9696L270.53 85.31C271.278 85.511 271.412 85.9854 271.412 86.3928L269.38 94.6644C269.246 94.8654 269.04 95.2058 268.498 95.0719L267.142 94.7314L266.193 96.8356L268.565 97.444L269.855 97.7844L269.107 100.837L270.938 101.312L271.685 98.2644C272.16 98.3984 272.634 98.5379 273.176 98.6719L272.5 101.652L274.331 102.127L275.079 99.0737C278.199 99.6821 280.571 99.4142 281.587 96.5677C282.402 94.2626 281.52 92.9733 279.89 92.0914C281.112 91.8179 281.994 91.0086 282.262 89.3789C282.536 87.0737 280.839 85.8514 278.467 85.1091L278.456 85.0979ZM277.981 95.2003C277.44 97.5054 273.578 96.2161 272.288 95.9482L273.304 91.8793C274.526 92.2198 278.523 92.8282 277.981 95.2003ZM278.523 89.2337C277.981 91.3379 274.794 90.2496 273.778 89.9816L274.727 86.3203C275.743 86.5937 279.064 87.0682 278.523 89.2337Z" fill="white"/>
</g>
<g filter="url(#filter6_d_3536_7767)">
<path d="M274.8 163.556C284.082 163.556 291.544 156.093 291.544 146.812C291.544 137.53 284.082 130.067 274.8 130.067C265.518 130.067 258.056 137.53 258.056 146.812C258.056 156.093 265.518 163.556 274.8 163.556Z" fill="#F5516C"/>
<path d="M279.404 149.463C279.404 147.024 277.942 146.187 275.006 145.835C272.913 145.556 272.494 144.998 272.494 144.021C272.494 143.044 273.192 142.419 274.587 142.419C275.843 142.419 276.541 142.838 276.887 143.881C276.959 144.094 277.166 144.227 277.378 144.227H278.494C278.773 144.227 278.985 144.015 278.985 143.742V143.669C278.706 142.134 277.451 140.946 275.849 140.812V139.137C275.849 138.858 275.637 138.646 275.291 138.579H274.241C273.962 138.579 273.75 138.786 273.683 139.137V140.739C271.59 141.018 270.267 142.414 270.267 144.16C270.267 146.46 271.663 147.37 274.593 147.716C276.546 148.062 277.177 148.48 277.177 149.602C277.177 150.724 276.2 151.489 274.878 151.489C273.064 151.489 272.433 150.719 272.226 149.675C272.159 149.396 271.947 149.256 271.741 149.256H270.552C270.273 149.256 270.066 149.468 270.066 149.747V149.82C270.345 151.561 271.462 152.817 273.761 153.169V154.843C273.761 155.122 273.973 155.329 274.319 155.401H275.369C275.648 155.401 275.86 155.189 275.927 154.843V153.169C278.02 152.817 279.415 151.355 279.415 149.468L279.404 149.463Z" fill="white"/>
<path d="M271.239 156.791C265.798 154.838 263.007 148.771 265.033 143.396C266.082 140.466 268.382 138.233 271.239 137.189C271.518 137.05 271.658 136.843 271.658 136.492V135.515C271.658 135.236 271.518 135.024 271.239 134.957C271.167 134.957 271.027 134.957 270.96 135.024C264.335 137.117 260.702 144.166 262.8 150.791C264.056 154.698 267.059 157.701 270.96 158.951C271.239 159.091 271.518 158.951 271.585 158.672C271.658 158.605 271.658 158.533 271.658 158.393V157.416C271.658 157.204 271.446 156.931 271.239 156.791ZM278.635 135.024C278.356 134.884 278.077 135.024 278.01 135.303C277.937 135.375 277.937 135.442 277.937 135.582V136.559C277.937 136.838 278.149 137.117 278.356 137.256C283.798 139.21 286.588 145.277 284.562 150.652C283.513 153.582 281.213 155.814 278.356 156.858C278.077 156.998 277.937 157.204 277.937 157.556V158.533C277.937 158.812 278.077 159.024 278.356 159.091C278.428 159.091 278.568 159.091 278.635 159.024C285.26 156.931 288.893 149.881 286.795 143.256C285.539 139.282 282.469 136.28 278.635 135.024Z" fill="white"/>
</g>
</g>
<defs>
<filter id="filter0_d_3536_7767" x="34.2422" y="58.4136" width="40.0693" height="38.1165" filterUnits="userSpaceOnUse" color-interpolation-filters="sRGB">
<feFlood flood-opacity="0" result="BackgroundImageFix"/>
<feColorMatrix in="SourceAlpha" type="matrix" values="0 0 0 0 0 0 0 0 0 0 0 0 0 0 0 0 0 0 127 0" result="hardAlpha"/>
<feOffset dx="1" dy="1"/>
<feColorMatrix type="matrix" values="0 0 0 0 0.0459375 0 0 0 0 0.272591 0 0 0 0 0.525 0 0 0 1 0"/>
<feBlend mode="normal" in2="BackgroundImageFix" result="effect1_dropShadow_3536_7767"/>
<feBlend mode="normal" in="SourceGraphic" in2="effect1_dropShadow_3536_7767" result="shape"/>
</filter>
<filter id="filter1_d_3536_7767" x="117.192" y="78.1382" width="84.7207" height="86.7209" filterUnits="userSpaceOnUse" color-interpolation-filters="sRGB">
<feFlood flood-opacity="0" result="BackgroundImageFix"/>
<feColorMatrix in="SourceAlpha" type="matrix" values="0 0 0 0 0 0 0 0 0 0 0 0 0 0 0 0 0 0 127 0" result="hardAlpha"/>
<feOffset dx="1" dy="3"/>
<feColorMatrix type="matrix" values="0 0 0 0 0.419608 0 0 0 0 0.215686 0 0 0 0 0.32549 0 0 0 1 0"/>
<feBlend mode="normal" in2="BackgroundImageFix" result="effect1_dropShadow_3536_7767"/>
<feBlend mode="normal" in="SourceGraphic" in2="effect1_dropShadow_3536_7767" result="shape"/>
</filter>
<filter id="filter2_d_3536_7767" x="211.93" y="28.1233" width="34.4873" height="35.4871" filterUnits="userSpaceOnUse" color-interpolation-filters="sRGB">
<feFlood flood-opacity="0" result="BackgroundImageFix"/>
<feColorMatrix in="SourceAlpha" type="matrix" values="0 0 0 0 0 0 0 0 0 0 0 0 0 0 0 0 0 0 127 0" result="hardAlpha"/>
<feOffset dx="1" dy="2"/>
<feColorMatrix type="matrix" values="0 0 0 0 0.419608 0 0 0 0 0.215686 0 0 0 0 0.32549 0 0 0 1 0"/>
<feBlend mode="normal" in2="BackgroundImageFix" result="effect1_dropShadow_3536_7767"/>
<feBlend mode="normal" in="SourceGraphic" in2="effect1_dropShadow_3536_7767" result="shape"/>
</filter>
<filter id="filter3_d_3536_7767" x="34.2422" y="140.555" width="40.0693" height="41.0698" filterUnits="userSpaceOnUse" color-interpolation-filters="sRGB">
<feFlood flood-opacity="0" result="BackgroundImageFix"/>
<feColorMatrix in="SourceAlpha" type="matrix" values="0 0 0 0 0 0 0 0 0 0 0 0 0 0 0 0 0 0 127 0" result="hardAlpha"/>
<feOffset dx="1" dy="2"/>
<feColorMatrix type="matrix" values="0 0 0 0 0.566667 0 0 0 0 0.371167 0 0 0 0 0.0779167 0 0 0 1 0"/>
<feBlend mode="normal" in2="BackgroundImageFix" result="effect1_dropShadow_3536_7767"/>
<feBlend mode="normal" in="SourceGraphic" in2="effect1_dropShadow_3536_7767" result="shape"/>
</filter>
<filter id="filter4_d_3536_7767" x="211.933" y="171.924" width="34.4902" height="35.4905" filterUnits="userSpaceOnUse" color-interpolation-filters="sRGB">
<feFlood flood-opacity="0" result="BackgroundImageFix"/>
<feColorMatrix in="SourceAlpha" type="matrix" values="0 0 0 0 0 0 0 0 0 0 0 0 0 0 0 0 0 0 127 0" result="hardAlpha"/>
<feOffset dx="1" dy="2"/>
<feColorMatrix type="matrix" values="0 0 0 0 0.419608 0 0 0 0 0.215686 0 0 0 0 0.32549 0 0 0 1 0"/>
<feBlend mode="normal" in2="BackgroundImageFix" result="effect1_dropShadow_3536_7767"/>
<feBlend mode="normal" in="SourceGraphic" in2="effect1_dropShadow_3536_7767" result="shape"/>
</filter>
<filter id="filter5_d_3536_7767" x="258.05" y="74.9287" width="34.4883" height="35.4883" filterUnits="userSpaceOnUse" color-interpolation-filters="sRGB">
<feFlood flood-opacity="0" result="BackgroundImageFix"/>
<feColorMatrix in="SourceAlpha" type="matrix" values="0 0 0 0 0 0 0 0 0 0 0 0 0 0 0 0 0 0 127 0" result="hardAlpha"/>
<feOffset dx="1" dy="2"/>
<feColorMatrix type="matrix" values="0 0 0 0 0.419608 0 0 0 0 0.215686 0 0 0 0 0.32549 0 0 0 1 0"/>
<feBlend mode="normal" in2="BackgroundImageFix" result="effect1_dropShadow_3536_7767"/>
<feBlend mode="normal" in="SourceGraphic" in2="effect1_dropShadow_3536_7767" result="shape"/>
</filter>
<filter id="filter6_d_3536_7767" x="258.056" y="130.067" width="34.4883" height="35.4883" filterUnits="userSpaceOnUse" color-interpolation-filters="sRGB">
<feFlood flood-opacity="0" result="BackgroundImageFix"/>
<feColorMatrix in="SourceAlpha" type="matrix" values="0 0 0 0 0 0 0 0 0 0 0 0 0 0 0 0 0 0 127 0" result="hardAlpha"/>
<feOffset dx="1" dy="2"/>
<feColorMatrix type="matrix" values="0 0 0 0 0.419608 0 0 0 0 0.215686 0 0 0 0 0.32549 0 0 0 1 0"/>
<feBlend mode="normal" in2="BackgroundImageFix" result="effect1_dropShadow_3536_7767"/>
<feBlend mode="normal" in="SourceGraphic" in2="effect1_dropShadow_3536_7767" result="shape"/>
</filter>
<clipPath id="clip0_3536_7767">
<rect width="325.417" height="240" fill="white" transform="translate(0 0.986572)"/>
</clipPath>
</defs>
</svg>
