<svg width="237" height="141" viewBox="0 0 237 141" fill="none" xmlns="http://www.w3.org/2000/svg">
<rect x="102.025" y="11.4048" width="29.2513" height="7.31282" rx="3.65641" fill="white"/>
<path fill-rule="evenodd" clip-rule="evenodd" d="M102.025 29.6867C102.025 27.6673 103.662 26.0303 105.682 26.0303H117.87C119.889 26.0303 121.526 27.6673 121.526 29.6867C121.526 31.7061 119.889 33.3431 117.87 33.3431H105.682C103.662 33.3431 102.025 31.7061 102.025 29.6867ZM102.025 89.5942C102.025 87.5763 103.661 85.9405 105.679 85.9405H123.967C125.984 85.9405 127.62 87.5763 127.62 89.5942C127.62 91.612 125.984 93.2478 123.967 93.2478H105.679C103.661 93.2478 102.025 91.612 102.025 89.5942ZM102.025 104.57C102.025 102.552 103.661 100.917 105.679 100.917H119.168C121.185 100.917 122.821 102.552 122.821 104.57C122.821 106.588 121.185 108.224 119.168 108.224H105.679C103.661 108.224 102.025 106.588 102.025 104.57ZM105.682 115.893C103.662 115.893 102.025 117.53 102.025 119.549C102.025 121.569 103.662 123.206 105.682 123.206H126.401C128.421 123.206 130.058 121.569 130.058 119.549C130.058 117.53 128.421 115.893 126.401 115.893H105.682ZM105.679 41.012C103.661 41.012 102.025 42.6478 102.025 44.6657C102.025 46.6836 103.661 48.3194 105.679 48.3194H121.508C123.526 48.3194 125.162 46.6836 125.162 44.6657C125.162 42.6478 123.526 41.012 121.508 41.012H105.679ZM102.025 74.618C102.025 72.6002 103.661 70.9643 105.679 70.9643H117.512C119.53 70.9643 121.165 72.6002 121.165 74.618C121.165 76.6359 119.53 78.2717 117.512 78.2717H105.679C103.661 78.2717 102.025 76.6359 102.025 74.618ZM105.679 55.9882C103.661 55.9882 102.025 57.624 102.025 59.6419C102.025 61.6597 103.661 63.2955 105.679 63.2955H123.831C125.849 63.2955 127.484 61.6597 127.484 59.6419C127.484 57.624 125.849 55.9882 123.831 55.9882H105.679Z" fill="url(#paint0_linear_3559_4298)"/>
<path fill-rule="evenodd" clip-rule="evenodd" d="M141.503 26.3865C139.485 26.3865 137.85 28.0223 137.85 30.0402C137.85 32.058 139.485 33.6938 141.503 33.6938H155.523C157.541 33.6938 159.176 32.058 159.176 30.0402C159.176 28.0223 157.541 26.3865 155.523 26.3865H141.503ZM137.85 74.9687C137.85 72.9508 139.485 71.315 141.503 71.315H157.789C159.806 71.315 161.442 72.9508 161.442 74.9687C161.442 76.9866 159.806 78.6224 157.789 78.6224H141.503C139.485 78.6224 137.85 76.9866 137.85 74.9687ZM137.85 89.9448C137.85 87.927 139.485 86.2912 141.503 86.2912H153.365C155.383 86.2912 157.019 87.927 157.019 89.9448C157.019 91.9627 155.383 93.5985 153.365 93.5985H141.503C139.485 93.5985 137.85 91.9627 137.85 89.9448ZM141.506 101.267C139.487 101.267 137.85 102.904 137.85 104.924C137.85 106.943 139.487 108.58 141.506 108.58H160.033C162.052 108.58 163.689 106.943 163.689 104.924C163.689 102.904 162.052 101.267 160.033 101.267H141.506ZM137.85 122.398C137.85 120.379 139.487 118.742 141.506 118.742H153.362C155.382 118.742 157.019 120.379 157.019 122.398C157.019 124.418 155.382 126.055 153.362 126.055H141.506C139.487 126.055 137.85 124.418 137.85 122.398ZM137.85 59.9925C137.85 57.9747 139.485 56.3389 141.503 56.3389H155.523C157.541 56.3389 159.176 57.9747 159.176 59.9925C159.176 62.0104 157.541 63.6462 155.523 63.6462H141.503C139.485 63.6462 137.85 62.0104 137.85 59.9925ZM141.503 41.3627C139.485 41.3627 137.85 42.9985 137.85 45.0164C137.85 47.0343 139.485 48.6701 141.503 48.6701H151.219C153.237 48.6701 154.873 47.0343 154.873 45.0164C154.873 42.9985 153.237 41.3627 151.219 41.3627H141.503Z" fill="url(#paint1_linear_3559_4298)"/>
<path fill-rule="evenodd" clip-rule="evenodd" d="M72.2552 11.4048C70.2374 11.4048 68.6016 13.0406 68.6016 15.0585C68.6016 17.0763 70.2374 18.7121 72.2552 18.7121H87.1087C89.1265 18.7121 90.7623 17.0763 90.7623 15.0585C90.7623 13.0406 89.1265 11.4048 87.1087 11.4048H72.2552ZM68.6017 59.9869C68.6017 57.969 70.2375 56.3332 72.2554 56.3332H89.4634C91.4813 56.3332 93.1171 57.969 93.1171 59.9869C93.1171 62.0048 91.4813 63.6406 89.4634 63.6406H72.2554C70.2375 63.6406 68.6017 62.0048 68.6017 59.9869ZM68.6017 74.9631C68.6017 72.9452 70.2375 71.3094 72.2554 71.3094H84.8668C86.8846 71.3094 88.5204 72.9452 88.5204 74.9631C88.5204 76.9809 86.8846 78.6167 84.8668 78.6167H72.2554C70.2375 78.6167 68.6017 76.9809 68.6017 74.9631ZM72.2581 86.2855C70.2387 86.2855 68.6017 87.9226 68.6017 89.942C68.6017 91.9613 70.2387 93.5984 72.2581 93.5984H91.7955C93.8148 93.5984 95.4519 91.9613 95.4519 89.942C95.4519 87.9226 93.8148 86.2855 91.7955 86.2855H72.2581ZM68.6017 107.417C68.6017 105.397 70.2387 103.76 72.2581 103.76H84.864C86.8834 103.76 88.5204 105.397 88.5204 107.417C88.5204 109.436 86.8834 111.073 84.864 111.073H72.2581C70.2387 111.073 68.6017 109.436 68.6017 107.417ZM68.6017 45.0108C68.6017 42.9929 70.2375 41.3571 72.2554 41.3571H87.1088C89.1267 41.3571 90.7625 42.9929 90.7625 45.0108C90.7625 47.0286 89.1267 48.6644 87.1088 48.6644H72.2554C70.2375 48.6644 68.6017 47.0286 68.6017 45.0108ZM72.2554 26.3809C70.2375 26.3809 68.6017 28.0167 68.6017 30.0346C68.6017 32.0525 70.2375 33.6883 72.2554 33.6883H82.6372C84.655 33.6883 86.2908 32.0525 86.2908 30.0346C86.2908 28.0167 84.655 26.3809 82.6372 26.3809H72.2554Z" fill="url(#paint2_linear_3559_4298)"/>
<path d="M219.799 30.9845C188.786 40.223 207.185 7.51244 183.069 15.9734" stroke="#F5516C" stroke-width="2"/>
<path fill-rule="evenodd" clip-rule="evenodd" d="M233.616 76.3987L228.224 81.7909L225.984 84.0313L208.924 66.9718L210.003 65.8934L225.984 81.8744L227.146 80.7124L224.312 77.8788L229.704 72.4867L232.538 75.3202L233.616 76.3987ZM174.635 17.4213L228.557 71.3431L223.166 76.7339L169.244 22.8121L167.002 15.9088C166.855 15.4599 167.281 15.0339 167.731 15.1795L174.635 17.4213Z" fill="#F5516C"/>
<g opacity="0.9">
<path d="M36.2788 70.877C31.4695 70.877 28.1113 72.8316 28.1113 75.6347C28.1113 78.4378 31.3942 80.3806 36.2788 80.3806H85.1412L85.161 75.9955C85.1689 74.6316 84.6416 73.347 83.6781 72.3796C82.7147 71.4122 81.4341 70.8809 80.0702 70.8809H36.2788V70.877Z" fill="#072440"/>
<path d="M90.697 134.104H37.7192C34.1786 134.104 31.1812 133.251 29.0481 131.642C27.1014 130.175 25.9873 128.117 25.9873 126V75.8289C25.9873 75.7655 25.9873 75.6981 25.9873 75.6346C25.9873 71.5826 30.2217 68.7517 36.28 68.7517H80.0713C82.0061 68.7517 83.822 69.505 85.1859 70.8768C86.5498 72.2487 87.2952 74.0685 87.2872 76.0033L87.2674 80.3805H90.697C94.6776 80.3805 97.9129 83.6197 97.9129 87.5964V126.884C97.9129 130.864 94.6737 134.1 90.697 134.1V134.104ZM36.28 70.8768C31.4706 70.8768 28.1124 72.8315 28.1124 75.6346C28.1124 78.4377 31.3953 80.3805 36.28 80.3805H85.1423L85.1621 75.9954C85.17 74.6315 84.6427 73.3469 83.6792 72.3795C82.7158 71.4121 81.4352 70.8808 80.0713 70.8808H36.28V70.8768Z" fill="url(#paint3_linear_3559_4298)" fill-opacity="0.95"/>
<path d="M98.7816 115.584H85.1585C80.5474 115.584 76.8086 111.845 76.8086 107.234C76.8086 102.623 80.5474 98.8843 85.1585 98.8843H98.7816" fill="white" fill-opacity="0.95"/>
<path d="M98.7816 115.584H85.1585C80.5474 115.584 76.8086 111.845 76.8086 107.234C76.8086 102.623 80.5474 98.8843 85.1585 98.8843H98.7816" stroke="#DEDEDE" stroke-miterlimit="10"/>
<path d="M89.8369 105.078C89.8369 103.765 88.7703 102.699 87.458 102.699C86.1456 102.699 85.0791 103.765 85.0791 105.078C85.0791 106.025 85.6342 106.838 86.4311 107.223V111.088C86.3994 111.453 86.6333 111.778 86.9346 111.778H87.9774C88.2787 111.778 88.5126 111.457 88.4769 111.088V107.223C89.2778 106.838 89.8329 106.025 89.8329 105.078H89.8369Z" fill="#072440"/>
</g>
<g filter="url(#filter0_d_3559_4298)">
<path d="M26.653 105.086C26.9148 105.086 27.1904 105.026 27.4706 104.902C27.7554 104.783 27.9943 104.659 28.1964 104.539C31.4301 102.578 34.1356 100.887 36.3083 99.4588C38.481 98.0349 40.2127 96.7212 41.508 95.5177C42.8033 94.3142 43.722 93.0465 44.2686 91.7144C44.8152 90.3823 45.0862 88.8022 45.0862 86.9832V69.1287C45.0862 67.815 44.8704 66.8596 44.434 66.2624C43.9976 65.6653 43.157 65.137 41.903 64.6685C40.7914 64.2459 39.6752 63.8095 38.5545 63.364C37.4337 62.9184 36.2991 62.4729 35.1599 62.0319C34.0162 61.5864 32.877 61.1546 31.7333 60.7274C30.5895 60.3048 29.4733 59.9006 28.3847 59.5147C28.0815 59.4137 27.7921 59.3264 27.5211 59.2575C27.2501 59.1886 26.9607 59.1519 26.6576 59.1519C26.3728 59.1519 26.0972 59.1886 25.8216 59.2575C25.5506 59.3264 25.2612 59.4137 24.958 59.5147C23.8464 59.919 22.7256 60.3324 21.5911 60.7595C20.4565 61.1867 19.3219 61.6139 18.1782 62.0503C17.0344 62.4867 15.8953 62.923 14.7515 63.3686C13.6078 63.8141 12.4916 64.2459 11.4029 64.6731C10.1489 65.1187 9.30377 65.6423 8.87199 66.2486C8.43562 66.855 8.21973 67.815 8.21973 69.1287V86.9878C8.21973 88.8068 8.50452 90.3777 9.0695 91.7006C9.63449 93.0235 10.5669 94.2775 11.8577 95.458C13.153 96.6385 14.8801 97.943 17.0436 99.367C19.2071 100.791 21.8942 102.513 25.1096 104.535C25.3117 104.654 25.5552 104.778 25.8354 104.897C26.1202 105.017 26.3912 105.081 26.653 105.081V105.086Z" fill="url(#paint4_linear_3559_4298)"/>
<path d="M26.6534 106.924C26.139 106.924 25.6199 106.813 25.11 106.593C24.7472 106.437 24.4394 106.28 24.1638 106.115C20.9209 104.076 18.197 102.33 16.0335 100.906C13.8011 99.4363 11.9776 98.0583 10.6179 96.8181C9.13425 95.463 8.04562 93.984 7.37958 92.4268C6.71813 90.8788 6.38281 89.0507 6.38281 86.9882V69.1291C6.38281 67.4066 6.70894 66.1113 7.37958 65.1788C8.04102 64.2556 9.14803 63.5298 10.7649 62.951L14.0905 61.6557C15.2389 61.2102 16.3826 60.7692 17.531 60.3328C18.6747 59.8964 19.8139 59.4647 20.9484 59.0421C22.0876 58.6149 23.213 58.2015 24.3292 57.7927L24.3751 57.7743C24.715 57.6595 25.0457 57.563 25.3581 57.4803C26.2262 57.2552 27.1541 57.2644 27.9763 57.4803C28.2887 57.563 28.6194 57.6595 28.9593 57.7743C30.0939 58.1739 31.233 58.5873 32.3676 59.0099C33.5159 59.4371 34.6689 59.8735 35.8218 60.3236C36.9656 60.7692 38.1047 61.2147 39.2301 61.6603C40.3463 62.1013 41.4533 62.533 42.5603 62.9556C44.1588 63.5482 45.2612 64.2785 45.9227 65.1834C46.5979 66.1113 46.9286 67.402 46.9286 69.1291V86.9882C46.9286 89.0369 46.6071 90.8651 45.9732 92.413C45.3301 93.9886 44.2507 95.486 42.767 96.8686C41.4028 98.1364 39.5746 99.5236 37.3239 101.003C35.142 102.431 32.3952 104.154 29.1568 106.115C28.8766 106.285 28.5643 106.441 28.2014 106.597C27.6915 106.818 27.1725 106.928 26.658 106.928L26.6534 106.924ZM25.5602 61.2515C24.4624 61.6511 23.3554 62.0599 22.2346 62.4779C21.1046 62.9005 19.97 63.3277 18.8309 63.7641C17.6917 64.1959 16.5572 64.6368 15.418 65.0778L12.0143 66.4007C10.7419 66.8508 10.4158 67.2413 10.3607 67.3148C10.3102 67.3883 10.0529 67.8108 10.0529 69.1246V86.9836C10.0529 88.5454 10.2872 89.8867 10.7557 90.9753C11.2151 92.0501 12.0005 93.102 13.0937 94.0988C14.311 95.2104 15.9784 96.469 18.05 97.8332C20.1905 99.2434 22.896 100.975 26.0838 102.982C26.1803 103.042 26.3503 103.125 26.557 103.212C26.6075 103.235 26.6396 103.24 26.6534 103.244C26.6672 103.244 26.6994 103.235 26.7499 103.212C26.9566 103.125 27.1265 103.038 27.2552 102.964C30.4476 101.03 33.1577 99.3307 35.3028 97.9251C37.379 96.5609 39.0464 95.3023 40.259 94.1723C41.3523 93.1572 42.1285 92.0961 42.5695 91.0166C43.0197 89.9096 43.2493 88.5546 43.2493 86.9836V69.1291C43.2493 67.8246 43.0013 67.4158 42.9508 67.3469C42.8956 67.2734 42.5603 66.8784 41.265 66.3961C40.1304 65.9643 39.005 65.5233 37.8751 65.0778C36.7589 64.6368 35.6289 64.1913 34.4897 63.7457C33.3552 63.3047 32.2252 62.873 31.0906 62.4504C29.9744 62.037 28.8583 61.6327 27.7696 61.2469C27.5399 61.1688 27.2873 61.0953 27.053 61.0356C26.828 60.9759 26.5432 60.9667 26.2768 61.0356C26.0517 61.0953 25.8082 61.1642 25.5556 61.2515H25.5602Z" fill="url(#paint5_linear_3559_4298)"/>
<g style="mix-blend-mode:multiply" filter="url(#filter1_i_3559_4298)">
<path d="M25.56 61.2512C24.4622 61.6509 23.3552 62.0597 22.2344 62.4777C21.1044 62.9003 19.9699 63.3275 18.8307 63.7638C17.6915 64.1956 16.557 64.6366 15.4178 65.0775L12.0141 66.4004C10.7417 66.8506 10.4156 67.241 10.3605 67.3145C10.31 67.388 10.0527 67.8106 10.0527 69.1243V86.9834C10.0527 88.5451 10.287 89.8864 10.7555 90.975C11.2149 92.0499 12.0003 93.1018 13.0936 94.0985C14.3108 95.2101 15.9782 96.4687 18.0498 97.833C20.1903 99.2431 22.8958 100.975 26.0837 102.982C26.1801 103.042 26.3501 103.125 26.5568 103.212C26.6073 103.235 26.6394 103.239 26.6532 103.244C26.667 103.244 26.6992 103.235 26.7497 103.212C26.9564 103.125 27.1263 103.037 27.255 102.964C30.4474 101.03 33.1575 99.3304 35.3026 97.9248C37.3788 96.5606 39.0462 95.302 40.2588 94.172C41.3521 93.1569 42.1283 92.0958 42.5693 91.0164C43.0195 89.9094 43.2491 88.5543 43.2491 86.9834V69.1289C43.2491 67.8244 43.0011 67.4156 42.9506 67.3467C42.8954 67.2732 42.5601 66.8781 41.2648 66.3958C40.1302 65.9641 39.0048 65.5231 37.8749 65.0775C36.7587 64.6366 35.6287 64.191 34.4895 63.7455C33.355 63.3045 32.225 62.8727 31.0904 62.4501C29.9742 62.0367 28.8581 61.6325 27.7694 61.2466C27.5398 61.1686 27.2871 61.0951 27.0529 61.0354C26.8278 60.9756 26.543 60.9665 26.2766 61.0354C26.0515 61.0951 25.808 61.164 25.5554 61.2512H25.56Z" fill="white" style="mix-blend-mode:multiply"/>
</g>
<g filter="url(#filter2_d_3559_4298)">
<path fill-rule="evenodd" clip-rule="evenodd" d="M22.1523 75.2803C21.9942 75.1223 21.9958 74.8644 22.1651 74.7186C24.3591 72.8307 27.5911 72.4341 30.2397 73.9632C33.5909 75.8981 34.7391 80.1832 32.8043 83.5345C30.8695 86.8857 26.5843 88.0339 23.2331 86.099C21.5102 85.1043 20.3702 83.4906 19.9309 81.6978C19.7666 81.0272 19.0898 80.6169 18.4193 80.7812C17.7488 80.9455 17.3384 81.6223 17.5027 82.2928C18.0976 84.7203 19.6458 86.9147 21.9831 88.2641C26.53 90.8893 32.3442 89.3314 34.9694 84.7845C37.5945 80.2375 36.0367 74.4234 31.4897 71.7982C27.8356 69.6885 23.363 70.2804 20.3849 72.9542C20.2219 73.1006 19.9718 73.0998 19.8169 72.9449L18.4497 71.5778C18.215 71.3431 17.813 71.4799 17.7702 71.809L16.9341 78.2373C16.9002 78.4976 17.122 78.7194 17.3823 78.6855L23.8106 77.8494C24.1398 77.8066 24.2766 77.4046 24.0419 77.1699L22.1523 75.2803Z" fill="#F5516C"/>
</g>
</g>
<defs>
<filter id="filter0_d_3559_4298" x="6.38281" y="57.3149" width="41.0459" height="50.6133" filterUnits="userSpaceOnUse" color-interpolation-filters="sRGB">
<feFlood flood-opacity="0" result="BackgroundImageFix"/>
<feColorMatrix in="SourceAlpha" type="matrix" values="0 0 0 0 0 0 0 0 0 0 0 0 0 0 0 0 0 0 127 0" result="hardAlpha"/>
<feOffset dx="0.5" dy="1"/>
<feComposite in2="hardAlpha" operator="out"/>
<feColorMatrix type="matrix" values="0 0 0 0 0.384653 0 0 0 0 0.43181 0 0 0 0 0.483333 0 0 0 1 0"/>
<feBlend mode="normal" in2="BackgroundImageFix" result="effect1_dropShadow_3559_4298"/>
<feBlend mode="normal" in="SourceGraphic" in2="effect1_dropShadow_3559_4298" result="shape"/>
</filter>
<filter id="filter1_i_3559_4298" x="10.0527" y="60.9871" width="33.1963" height="42.2568" filterUnits="userSpaceOnUse" color-interpolation-filters="sRGB">
<feFlood flood-opacity="0" result="BackgroundImageFix"/>
<feBlend mode="normal" in="SourceGraphic" in2="BackgroundImageFix" result="shape"/>
<feColorMatrix in="SourceAlpha" type="matrix" values="0 0 0 0 0 0 0 0 0 0 0 0 0 0 0 0 0 0 127 0" result="hardAlpha"/>
<feOffset/>
<feGaussianBlur stdDeviation="1"/>
<feComposite in2="hardAlpha" operator="arithmetic" k2="-1" k3="1"/>
<feColorMatrix type="matrix" values="0 0 0 0 0 0 0 0 0 0 0 0 0 0 0 0 0 0 0.5 0"/>
<feBlend mode="normal" in2="shape" result="effect1_innerShadow_3559_4298"/>
</filter>
<filter id="filter2_d_3559_4298" x="16.9307" y="70.5229" width="19.3135" height="19.6164" filterUnits="userSpaceOnUse" color-interpolation-filters="sRGB">
<feFlood flood-opacity="0" result="BackgroundImageFix"/>
<feColorMatrix in="SourceAlpha" type="matrix" values="0 0 0 0 0 0 0 0 0 0 0 0 0 0 0 0 0 0 127 0" result="hardAlpha"/>
<feOffset dy="0.6"/>
<feComposite in2="hardAlpha" operator="out"/>
<feColorMatrix type="matrix" values="0 0 0 0 0.704167 0 0 0 0 0.202448 0 0 0 0 0.285048 0 0 0 1 0"/>
<feBlend mode="normal" in2="BackgroundImageFix" result="effect1_dropShadow_3559_4298"/>
<feBlend mode="normal" in="SourceGraphic" in2="effect1_dropShadow_3559_4298" result="shape"/>
</filter>
<linearGradient id="paint0_linear_3559_4298" x1="116.651" y1="26.0303" x2="116.651" y2="123.136" gradientUnits="userSpaceOnUse">
<stop stop-color="white" stop-opacity="0.2"/>
<stop offset="0.901042" stop-color="white" stop-opacity="0"/>
</linearGradient>
<linearGradient id="paint1_linear_3559_4298" x1="151.331" y1="26.3865" x2="151.331" y2="125.983" gradientUnits="userSpaceOnUse">
<stop stop-color="white" stop-opacity="0.2"/>
<stop offset="0.932292" stop-color="white" stop-opacity="0"/>
</linearGradient>
<linearGradient id="paint2_linear_3559_4298" x1="82.6103" y1="11.4048" x2="82.6103" y2="111.001" gradientUnits="userSpaceOnUse">
<stop stop-color="white" stop-opacity="0.2"/>
<stop offset="1" stop-color="white" stop-opacity="0"/>
</linearGradient>
<linearGradient id="paint3_linear_3559_4298" x1="25.9873" y1="101.426" x2="97.9129" y2="101.426" gradientUnits="userSpaceOnUse">
<stop stop-color="#A3AFBA"/>
<stop offset="0.22" stop-color="white"/>
<stop offset="0.93" stop-color="white"/>
</linearGradient>
<linearGradient id="paint4_linear_3559_4298" x1="10.0571" y1="59.1519" x2="44.9668" y2="59.1519" gradientUnits="userSpaceOnUse">
<stop offset="0.369792" stop-color="white"/>
<stop offset="0.802083" stop-color="#CACACA"/>
</linearGradient>
<linearGradient id="paint5_linear_3559_4298" x1="6.38281" y1="106.689" x2="46.7054" y2="106.689" gradientUnits="userSpaceOnUse">
<stop stop-color="white"/>
<stop offset="1" stop-color="#C5CAD0"/>
</linearGradient>
</defs>
</svg>
